<svg xmlns="http://www.w3.org/2000/svg" id="Layer_1" data-name="Layer 1" viewBox="0 0 300 100"><defs><style>      .cls-1 {        fill: #63ba6d;      }      .cls-2 {        fill: #72b96f;      }      .cls-3 {        fill: #92311a;      }      .cls-4 {        fill: #0d913a;      }      .cls-5 {        fill: #303030;      }      .cls-6 {        fill: #0a4f37;      }      .cls-7 {        fill: #93bf20;      }      .cls-8 {        fill: #532b15;      }      .cls-9 {        fill: #307bbd;      }    </style></defs><g><path class="cls-3" d="M39.89,46.59c-3.86-1.89-4.72-6.07-1.83-8.89,3.38,1.54,5.15,5.27,1.83,8.89Z"></path><path class="cls-3" d="M58.65,39.17c-.22.09-.41.23-.62.34-.16.13-.33.27-.5.4-.42.33-.84.66-1.27.98-.15.11-.3.21-.46.32-.57.43-1.2.81-1.84,1.15-4.53,1.28-9.4,1.85-13.17,4.82-1.5,1.19-2.56,2.7-3.23,4.41-.91,1.48-1.42,3.11-1.68,4.8-.07.43-.12.87-.15,1.3,0,.11-.02.22-.03.34-.01.08-.03.15-.04.23,0,.04,0,.07.02.1-.02.3-.03.61-.04.91-.14,1.11-.26,2.24-.57,3.31-.09.31-.21.6-.35.89-.38.58-.8,1.14-1.27,1.66-.16.18-.35.35-.54.53-.42.55-.83,1.24-.96,1.87.69-.35,1.51-.56,2.29-.65.68-.08,1.38-.15,2.07-.19.06-.04.12-.09.19-.14.43-.37.78-.84,1.05-1.34.51-.71.87-1.51,1.2-2.33,1.1-2.68,1.88-5.43,2.67-8.2.69-2.42,1.59-4.84,3.62-6.54,1.97-1.65,4.55-2.44,6.93-3.39,1.01-.4,2.03-.85,2.99-1.37.72-.54,1.37-1.16,1.97-1.83.42-.47.82-.95,1.19-1.45.23-.31.5-.63.71-.97-.08.03-.14.06-.17.07ZM42.32,49.36c-.48.58-.88,1.18-1.24,1.81-.18.31-.35.62-.52.94-1.42,2.53-1.42,5.38-2.69,7.92,1.11-2.69.95-5.86,2.51-8.45.24-.43.5-.84.79-1.25,1.14-1.61,2.62-2.98,4.31-3.93-.79.79-1.74,1.11-2.45,2.14-.25.27-.48.55-.71.82ZM45.61,45.14c-.3.21-.6.43-.88.68-.75.41-1.46.9-2.1,1.46-2.03,1.78-3.46,4.24-4.41,6.69-.56,1.45-.98,2.98-1.1,4.52-.06.77-.03,1.53-.23,2.28-.13.46-.2.94-.56,1.36.48-1.53.53-3.93.69-4.82.52-2.84,1.72-5.6,3.44-7.97,1.34-1.85,3.09-3.31,5.2-4.23-.01.01-.03.02-.04.03Z"></path><path class="cls-8" d="M39.36,47.51c-.56-.39-1.18-.68-1.8-.97-.42-.19-.84-.44-1.29-.62-1.31-.45-3.42-1-4.66-1.34-.38-.06-.76-.12-1.14-.18-.8-.13-1.62-.21-2.43-.2-.58,0-1.21.07-1.68.38.36.28.94.36,1.38.48.64.18,1.29.35,1.93.55.94.29,1.59.66,2.61,1.26.98.56,1.91,1.24,2.75,1.98.44.32.93.57,1.36.91.24.19.44.42.63.65.1.12.22.23.34.34.57-1.13,1.26-2.2,2.02-3.23Z"></path><path class="cls-3" d="M33.72,59.37l.28.19c.07.06.12.13.14.21v.06c-.19.73-.44,1.24-.77,1.51-.32.28-.72.41-1.2.41s-.9-.13-1.25-.4c-.35-.27-.67-.74-.96-1.41-.35.63-.85,1.1-1.49,1.41-.64.32-1.43.48-2.36.48-.86,0-1.49-.18-1.89-.54-.4-.36-.6-.83-.6-1.41,0-.27.06-.55.18-.83.12-.28.31-.56.58-.83.27-.28.7-.58,1.29-.91.09-.05.4-.19.94-.42l3.07-1.23c.02-.31.04-.63.04-.95,0-1.11-.14-1.87-.41-2.27-.16-.25-.45-.37-.86-.37s-.79.08-1.14.23c-.35.16-.6.36-.75.6-.12.18-.21.52-.3,1.02-.06.36-.11.57-.16.63-.12.16-.35.3-.67.43-.33.13-.55.22-.66.28-.44.21-.8.32-1.06.32-.12-.1-.17-.24-.17-.42,0-.47.1-.87.3-1.21.3-.48.74-.94,1.34-1.39.6-.45,1.15-.76,1.67-.94.71-.23,1.57-.35,2.59-.35.66,0,1.22.12,1.7.36.47.24.8.6.99,1.08.19.48.28,1.34.28,2.58l-.02,2.04.02,1.49v.38c0,.35.05.58.14.71.09.13.21.19.36.19.09,0,.17-.02.23-.07l.37-.58.22-.09ZM29.67,56.51c-.47.16-1,.42-1.59.78-.59.37-1,.73-1.23,1.1-.16.27-.25.6-.25,1,0,.35.11.65.32.88.21.23.46.35.74.35.46,0,.85-.13,1.17-.39.44-.35.69-.64.77-.85.07-.21.11-.8.11-1.78,0-.36-.02-.72-.05-1.09Z"></path><path class="cls-3" d="M42.89,61.07c.11-.09.25-.16.42-.2.42-.09.82-.25,1.2-.49.07-.2.11-.86.11-2,0-2.08-.05-3.48-.14-4.21-.02-.13-.08-.25-.2-.35-.21-.11-.49-.2-.84-.28-.16-.04-.26-.13-.3-.27l-.04-.46c.61-.08,1.16-.29,1.65-.62.49-.33.86-.67,1.11-1.02.13-.19.25-.33.35-.43l.86-.02c.04.19.06.35.06.47,0,.09,0,.2-.01.33,0,.29-.01.53-.01.72,0,.09,0,.43.01,1.02.34-.58.58-.96.74-1.16.07-.09.29-.29.65-.6.28-.21.6-.31.95-.31.44,0,.81.15,1.14.44.32.3.48.64.48,1.02s-.12.73-.36,1.04c-.24.31-.57.46-.97.46-.35,0-.72-.15-1.11-.44-.23-.18-.42-.27-.56-.27h-.09c-.17.07-.33.23-.47.48-.23.41-.35.84-.35,1.28l.02.33c.03.61.06,2.03.07,4.27.02.21.1.41.23.62.15.11.3.2.45.25.15.05.42.09.8.12.38.03.61.09.69.16.08.07.12.19.12.34,0,.09-.02.21-.07.36h-1.16l-2.36-.11c-.59,0-1.13.02-1.62.07h-.21c-.06,0-.49.02-1.28.06-.02-.14-.04-.24-.04-.31s.01-.17.04-.29Z"></path><path class="cls-3" d="M51.19,55.14c.21-.7.4-1.17.57-1.4.46-.68.95-1.2,1.48-1.58.52-.38.99-.63,1.41-.75.54-.16.98-.23,1.32-.23.77,0,1.4.06,1.88.18.48.12.88.29,1.2.51.46.32.83.65,1.11.97.28.33.51.72.69,1.16.18.44.27.98.29,1.62l-1.37-.02c-.38,0-1.21-.04-2.49-.11-.48-.04-.81-.06-.99-.06-.06,0-.5,0-1.33.02h-1.06c-.02.12-.02.21-.02.3,0,.44.05.9.16,1.38.11.48.27.91.48,1.27.21.37.48.68.8.95.32.26.64.45.98.57l.72.24c.63,0,1.06-.02,1.27-.06.39-.08.74-.19,1.04-.31.3-.13.66-.34,1.09-.65.3.21.54.41.74.58-.72.8-1.48,1.38-2.25,1.73s-1.65.54-2.61.54c-.65,0-1.18-.06-1.59-.17-.55-.15-1.05-.37-1.49-.68-.44-.3-.83-.68-1.15-1.14-.32-.45-.56-.92-.72-1.4-.21-.63-.31-1.13-.31-1.51,0-.72.06-1.36.17-1.94ZM58.36,54.62c0-.46-.1-.91-.27-1.33-.17-.42-.44-.75-.8-.99-.36-.24-.73-.35-1.1-.35-.55,0-1.05.24-1.49.73-.44.49-.7,1.14-.75,1.97l2.81.02c.18,0,.44-.01.77-.04.24-.02.41-.03.51-.03.07,0,.19,0,.33,0Z"></path><path class="cls-3" d="M62.16,55.14c.21-.7.4-1.17.57-1.4.46-.68.95-1.2,1.47-1.58.52-.38.99-.63,1.41-.75.54-.16.98-.23,1.32-.23.77,0,1.4.06,1.88.18.48.12.88.29,1.2.51.46.32.83.65,1.11.97.28.33.51.72.69,1.16.18.44.27.98.29,1.62l-1.37-.02c-.38,0-1.21-.04-2.49-.11-.48-.04-.81-.06-.99-.06-.06,0-.5,0-1.33.02h-1.06c-.02.12-.02.21-.02.3,0,.44.05.9.16,1.38.11.48.27.91.48,1.27.21.37.48.68.8.95.32.26.64.45.98.57l.72.24c.63,0,1.06-.02,1.27-.06.39-.08.74-.19,1.04-.31.3-.13.66-.34,1.09-.65.3.21.54.41.74.58-.72.8-1.48,1.38-2.25,1.73-.78.36-1.65.54-2.61.54-.65,0-1.18-.06-1.59-.17-.55-.15-1.05-.37-1.49-.68-.44-.3-.83-.68-1.15-1.14-.32-.45-.56-.92-.72-1.4-.21-.63-.31-1.13-.31-1.51,0-.72.06-1.36.17-1.94ZM69.33,54.62c0-.46-.1-.91-.27-1.33-.17-.42-.44-.75-.8-.99-.36-.24-.73-.35-1.1-.35-.55,0-1.05.24-1.49.73-.44.49-.7,1.14-.75,1.97l2.81.02c.18,0,.44-.01.77-.04.24-.02.41-.03.51-.03.07,0,.19,0,.33,0Z"></path><g><path class="cls-6" d="M39.34,35.63c-.07.26-.12.5-.06.76.04.15.07.31.12.46.03.09.06.2.12.26.15.16.31.3.48.44.07.06.16.11.24.13.17.04.33.09.42.26.01.02.04.04.08.07,0-.09,0-.15.02-.2,0-.05.02-.13.05-.14.13-.05.2-.16.31-.24.04-.03.1-.04.13-.07.11-.14.21-.3.33-.42.24-.24.34-.55.36-.86.02-.25-.05-.51-.09-.76-.02-.11-.07-.22-.13-.32-.15-.23-.36-.42-.58-.6-.15-.12-.28-.26-.35-.42,0,0,0,0,0,0-.04-.07-.09-.15-.15-.2,0,.06-.02.12-.06.17-.13.21-.33.37-.5.55-.09.1-.22.17-.29.28-.16.27-.34.53-.43.85Z"></path><path class="cls-4" d="M45.61,37.74c-.25.34-.46.66-.51,1.07-.03.24-.06.48-.08.73,0,.15-.02.32.03.45.13.31.29.6.45.89.07.12.17.24.28.32.23.15.43.31.47.6,0,.04.03.07.07.15.06-.12.09-.21.14-.29.04-.07.1-.17.14-.17.22,0,.38-.12.58-.18.07-.02.16,0,.22-.04.24-.14.46-.32.72-.44.49-.22.79-.62.99-1.06.16-.36.21-.76.29-1.15.03-.17.02-.36-.02-.54-.09-.42-.29-.8-.51-1.17-.15-.26-.27-.52-.28-.8,0,0,0-.01,0-.02-.03-.12-.05-.26-.11-.36-.04.08-.1.16-.17.21-.3.23-.68.37-1.04.54-.19.09-.42.13-.58.26-.39.31-.79.6-1.1,1.01Z"></path><path class="cls-6" d="M54.19,36.8c-.26.21-.48.41-.6.71-.07.18-.14.35-.2.54-.04.11-.08.23-.07.35.04.26.1.51.16.76.03.1.08.21.15.29.14.16.26.32.23.54,0,.03.01.06.02.12.07-.08.11-.14.16-.19.04-.04.11-.11.14-.1.16.04.32-.02.47-.03.06,0,.12.03.18.01.21-.06.41-.16.63-.2.41-.08.72-.32.96-.61.19-.24.32-.54.45-.82.06-.12.09-.27.09-.41.02-.33-.06-.66-.15-.98-.06-.22-.1-.44-.05-.66,0,0,0,0,0-.01,0-.09.02-.21,0-.3-.05.05-.11.1-.17.13-.27.12-.59.15-.89.21-.16.03-.34.02-.49.09-.36.16-.72.3-1.03.55Z"></path><path class="cls-6" d="M61.66,40.66c-.22-.22-.44-.4-.73-.48-.18-.05-.35-.1-.53-.14-.11-.02-.23-.05-.34-.03-.24.05-.48.13-.72.21-.1.03-.2.09-.27.16-.14.14-.28.27-.5.25-.03,0-.06.01-.12.03.08.06.14.09.2.13.04.04.12.09.11.12-.02.15.05.28.07.43,0,.05-.01.11,0,.16.08.19.18.36.24.55.11.37.36.63.67.82.25.16.54.24.82.34.12.04.27.06.4.05.32-.01.63-.11.93-.22.21-.07.42-.13.63-.1,0,0,0,0,.01,0,.09,0,.2,0,.28-.03-.06-.04-.1-.09-.14-.15-.14-.24-.19-.52-.28-.79-.05-.14-.05-.31-.12-.43-.18-.31-.35-.62-.62-.89Z"></path><path class="cls-6" d="M60.54,45.55c0-.13,0-.24-.05-.35-.03-.07-.07-.13-.1-.2-.02-.04-.05-.08-.08-.11-.08-.06-.18-.11-.27-.15-.04-.02-.08-.03-.13-.04-.08,0-.16-.01-.22-.08,0,0-.02-.01-.04-.03,0,.04.01.07.01.1,0,.02,0,.06,0,.07-.05.04-.08.09-.12.14-.01.02-.04.03-.05.05-.04.07-.06.16-.11.23-.09.13-.1.28-.07.43.02.12.07.23.12.34.02.05.06.1.1.13.09.09.21.16.33.22.08.04.16.09.21.16,0,0,0,0,0,0,.03.03.06.06.09.07,0-.03,0-.06,0-.08.04-.11.11-.2.17-.3.03-.05.08-.1.1-.16.05-.14.1-.28.11-.43Z"></path><path class="cls-2" d="M64.03,37.82c-.33-.06-.63-.09-.94.01-.19.06-.37.12-.55.19-.11.04-.24.09-.31.17-.18.19-.34.4-.49.61-.06.09-.12.2-.14.3-.03.21-.08.4-.28.52-.03.02-.04.05-.08.1.11,0,.18,0,.26,0,.06,0,.16,0,.17.04.07.15.22.22.33.33.04.04.06.11.1.14.18.12.39.21.56.34.33.26.71.33,1.1.32.31,0,.63-.11.93-.19.14-.04.27-.11.38-.19.27-.2.48-.47.68-.74.14-.19.29-.36.48-.46,0,0,0,0,.01,0,.08-.06.17-.12.23-.2-.07,0-.15-.02-.21-.05-.27-.13-.5-.35-.74-.53-.13-.1-.24-.24-.38-.31-.36-.16-.7-.34-1.1-.41Z"></path><path class="cls-4" d="M66.99,40.94c-.21-.08-.41-.14-.63-.11-.13.02-.26.03-.39.06-.08.02-.17.03-.23.08-.14.11-.28.22-.41.35-.05.05-.1.12-.13.18-.05.13-.1.26-.25.31-.02,0-.03.03-.07.05.07.01.12.02.17.03.04.01.1.02.11.05.03.11.12.17.17.26.02.03.02.08.05.1.11.1.23.18.33.29.18.21.43.31.69.35.21.03.43,0,.64-.01.09,0,.19-.04.28-.08.21-.1.38-.25.55-.41.11-.11.24-.2.38-.25,0,0,0,0,0,0,.06-.03.13-.06.18-.1-.05-.01-.1-.03-.14-.06-.16-.12-.28-.29-.42-.44-.07-.08-.13-.19-.21-.25-.21-.15-.42-.31-.68-.41Z"></path><path class="cls-1" d="M58.92,42.96c-.05-.17-.11-.32-.24-.45-.08-.07-.15-.15-.24-.22-.05-.04-.11-.09-.17-.11-.14-.04-.29-.06-.43-.08-.06,0-.13,0-.19,0-.11.04-.22.06-.33,0-.01,0-.03,0-.07-.02.03.05.05.09.06.12.01.03.04.08.02.09-.06.07-.06.16-.09.24-.01.03-.04.06-.04.08-.01.12,0,.24-.03.35-.05.22,0,.42.11.61.08.15.21.27.33.4.05.06.12.1.19.14.17.08.36.12.55.14.13.02.25.05.35.12,0,0,0,0,0,0,.05.02.1.05.16.06-.02-.04-.03-.07-.03-.11,0-.16.05-.32.09-.49.02-.09.06-.17.06-.26,0-.21,0-.42-.06-.63Z"></path><path class="cls-7" d="M66.65,35.62c-.22-.01-.43,0-.63.09-.12.06-.24.11-.35.17-.07.04-.15.08-.2.14-.1.14-.19.3-.28.45-.04.06-.06.14-.07.21,0,.14-.02.27-.14.37-.02.01-.02.03-.05.07.07,0,.12-.02.17-.02.04,0,.11,0,.12.01.06.09.17.13.25.2.03.02.05.07.08.08.13.06.28.11.4.18.24.15.51.17.77.13.21-.03.41-.12.61-.2.09-.04.17-.09.24-.16.17-.16.28-.35.39-.55.07-.14.16-.26.28-.35,0,0,0,0,0,0,.05-.05.11-.1.13-.15-.05,0-.1,0-.15-.01-.19-.06-.36-.19-.54-.29-.1-.06-.18-.14-.28-.17-.25-.08-.5-.17-.77-.19Z"></path><path class="cls-7" d="M57.75,37.47c-.11.08-.2.15-.26.27-.03.07-.07.14-.1.21-.02.04-.04.09-.04.14,0,.1.03.21.05.31,0,.04.03.09.05.12.05.07.1.13.08.22,0,.01,0,.02,0,.05.03-.03.05-.05.07-.07.02-.02.05-.04.06-.04.07.02.13,0,.19,0,.02,0,.05.01.07,0,.09-.02.17-.05.26-.06.17-.02.3-.11.4-.22.08-.09.14-.21.2-.32.03-.05.04-.11.05-.16.02-.13,0-.27-.03-.4-.02-.09-.03-.18,0-.27,0,0,0,0,0,0,0-.04.01-.08,0-.12-.02.02-.05.04-.07.05-.11.04-.24.04-.36.06-.07,0-.14,0-.2.02-.15.06-.3.1-.43.2Z"></path><path class="cls-7" d="M53.32,44.91c-.11.08-.2.16-.25.28-.03.07-.07.14-.09.21-.02.04-.04.09-.03.14,0,.1.03.21.05.31,0,.04.03.09.05.12.05.07.1.13.08.22,0,.01,0,.02,0,.05.03-.03.05-.05.07-.07.02-.02.05-.04.06-.04.07.02.13,0,.19,0,.02,0,.05.01.07,0,.09-.02.17-.06.26-.07.17-.02.3-.11.4-.23.08-.09.14-.21.2-.32.03-.05.04-.11.05-.16.01-.13-.01-.27-.04-.4-.02-.09-.03-.18,0-.27,0,0,0,0,0,0,0-.04.01-.08,0-.12-.02.02-.04.04-.07.05-.11.04-.24.05-.36.07-.07.01-.14,0-.2.03-.15.06-.29.11-.43.21Z"></path><path class="cls-7" d="M55.55,44.27c-.07.11-.12.22-.12.35,0,.08,0,.15,0,.23,0,.05,0,.1.02.14.05.09.11.18.17.27.03.04.06.07.1.09.08.04.15.08.17.17,0,.01.01.02.03.04.01-.04.02-.07.03-.09.01-.02.02-.06.04-.06.07,0,.12-.05.17-.08.02,0,.05,0,.07-.02.07-.05.13-.12.21-.16.15-.08.23-.22.28-.36.04-.12.04-.25.05-.37,0-.06,0-.11-.02-.17-.04-.13-.12-.24-.2-.35-.05-.08-.1-.16-.11-.24,0,0,0,0,0,0-.01-.04-.02-.08-.05-.11-.01.03-.03.05-.05.07-.09.08-.2.14-.31.2-.06.03-.13.05-.17.1-.11.11-.23.21-.31.35Z"></path><path class="cls-7" d="M61.75,46.69c.01.1.04.19.1.27.04.05.07.1.11.14.02.03.05.06.08.07.08.03.16.06.24.08.03,0,.07.01.11,0,.07-.01.13-.02.19.03,0,0,.02,0,.04.01-.01-.03-.02-.05-.03-.07,0-.02-.01-.05,0-.05.04-.04.05-.09.07-.13,0-.02.03-.03.03-.04.02-.06.02-.13.05-.2.05-.12.03-.24-.01-.35-.03-.09-.1-.17-.15-.25-.02-.04-.06-.07-.1-.09-.09-.06-.19-.09-.29-.12-.07-.02-.14-.05-.19-.09,0,0,0,0,0,0-.03-.02-.05-.04-.08-.05,0,.02,0,.04,0,.07-.01.09-.06.18-.09.27-.02.05-.05.09-.06.14-.01.12-.03.24-.02.36Z"></path><path class="cls-7" d="M26.89,30.68c.03.1.06.19.13.26.04.04.08.09.13.12.03.02.06.05.09.06.08.02.16.04.24.05.03,0,.07,0,.1,0,.06-.02.13-.04.19,0,0,0,.02,0,.04,0-.01-.03-.03-.05-.03-.07,0-.02-.02-.04-.01-.05.03-.04.03-.09.05-.14,0-.02.02-.03.03-.05,0-.07,0-.14.02-.2.03-.13,0-.24-.05-.35-.04-.08-.11-.16-.18-.23-.03-.03-.07-.06-.11-.08-.1-.05-.2-.07-.3-.08-.07-.01-.14-.03-.2-.07,0,0,0,0,0,0-.03-.01-.06-.03-.09-.03,0,.02.02.04.01.07,0,.09-.03.19-.05.28-.01.05-.04.1-.04.15,0,.12,0,.24.03.36Z"></path><path class="cls-7" d="M24.26,32.4c.04.09.09.18.17.23.05.04.1.07.15.1.03.02.07.04.1.05.08,0,.16,0,.25,0,.03,0,.07,0,.1-.02.06-.03.12-.06.19-.03,0,0,.02,0,.04,0-.02-.03-.03-.04-.05-.06,0-.02-.03-.04-.02-.05.03-.05.02-.1.03-.14,0-.02.02-.04.02-.05,0-.07-.01-.14,0-.2.01-.13-.04-.24-.11-.34-.06-.08-.14-.14-.21-.2-.03-.03-.08-.05-.12-.06-.1-.03-.21-.03-.31-.03-.07,0-.14,0-.21-.03,0,0,0,0,0,0-.03,0-.06-.02-.09-.02.01.02.02.04.02.06.01.09,0,.19,0,.28,0,.05-.02.1-.01.15.02.12.03.24.08.35Z"></path><path class="cls-7" d="M21.6,36.08c.04.09.09.18.17.23.05.04.1.07.15.1.03.02.07.04.1.05.08,0,.16,0,.25,0,.03,0,.07,0,.1-.02.06-.03.12-.06.19-.03,0,0,.02,0,.04,0-.02-.03-.03-.04-.05-.06,0-.02-.03-.04-.02-.05.03-.05.02-.1.03-.14,0-.02.02-.04.02-.05,0-.07-.01-.14,0-.2.01-.13-.04-.24-.11-.34-.06-.08-.14-.14-.21-.2-.03-.03-.08-.05-.12-.06-.1-.03-.21-.03-.31-.03-.07,0-.14,0-.21-.03,0,0,0,0,0,0-.03,0-.06-.02-.09-.02.01.02.02.04.02.06.01.09,0,.19,0,.28,0,.05-.02.1-.01.15.02.12.03.24.08.35Z"></path><path class="cls-1" d="M28.27,29.75c.03.1.06.19.13.26.04.04.08.09.13.13.03.02.06.05.09.06.08.02.16.04.24.05.03,0,.07,0,.11,0,.07-.02.13-.03.19,0,0,0,.02,0,.04,0-.01-.03-.03-.05-.03-.07,0-.02-.02-.04-.01-.05.03-.04.04-.09.05-.14,0-.02.02-.03.03-.05.01-.07,0-.14.03-.2.03-.13,0-.24-.05-.35-.04-.09-.11-.16-.18-.23-.03-.03-.07-.06-.11-.08-.1-.05-.2-.07-.31-.09-.07-.01-.14-.03-.2-.07,0,0,0,0,0,0-.03-.01-.06-.03-.09-.04,0,.02.01.04.01.07,0,.09-.04.18-.06.28-.01.05-.04.1-.04.15,0,.12,0,.24.02.36Z"></path><path class="cls-1" d="M26.89,29.07c.03.1.06.19.13.26.04.04.08.09.13.13.03.02.06.05.09.06.08.02.16.04.24.05.03,0,.07,0,.11,0,.07-.02.13-.03.19,0,0,0,.02,0,.04,0-.01-.03-.03-.05-.03-.07,0-.02-.02-.04-.01-.05.03-.04.04-.09.05-.14,0-.02.02-.03.03-.05.01-.07,0-.14.03-.2.03-.13,0-.24-.05-.35-.04-.09-.11-.16-.18-.23-.03-.03-.07-.06-.11-.08-.1-.05-.2-.07-.31-.09-.07-.01-.14-.03-.2-.07,0,0,0,0,0,0-.03-.01-.06-.03-.09-.04,0,.02.01.04.01.07,0,.09-.04.18-.06.28-.01.05-.04.1-.04.15,0,.12,0,.24.02.36Z"></path><path class="cls-1" d="M44.14,21.73c-.05.08-.09.15-.09.24,0,.05,0,.11,0,.16,0,.03,0,.07.02.1.03.07.07.13.12.19.02.03.04.05.07.07.05.03.1.06.11.12,0,0,0,.02.02.03.01-.03.02-.05.03-.07,0-.02.02-.04.03-.04.05,0,.08-.03.12-.05.02,0,.04,0,.05-.01.05-.04.1-.08.15-.11.1-.06.16-.15.2-.25.03-.08.03-.17.04-.26,0-.04,0-.08-.01-.12-.03-.09-.08-.17-.13-.25-.04-.05-.07-.11-.08-.17,0,0,0,0,0,0,0-.03-.02-.06-.03-.08,0,.02-.02.04-.03.05-.06.06-.14.09-.22.14-.04.02-.09.04-.12.07-.08.07-.16.14-.22.24Z"></path><path class="cls-7" d="M33.51,25.42c-.03.1-.05.19-.02.29.01.06.03.12.05.17.01.04.02.07.05.1.06.06.12.11.18.17.03.02.06.04.09.05.07.02.13.03.16.1,0,0,.01.01.03.03,0-.03,0-.06,0-.08,0-.02,0-.05.02-.05.05-.02.08-.06.12-.09.01-.01.04-.01.05-.03.04-.05.08-.11.12-.16.09-.09.13-.21.13-.33,0-.1-.02-.19-.04-.29,0-.04-.03-.08-.05-.12-.06-.09-.14-.16-.22-.23-.06-.05-.11-.1-.14-.16,0,0,0,0,0,0-.02-.02-.03-.06-.06-.07,0,.02,0,.04-.02.06-.05.08-.12.14-.19.21-.04.04-.08.07-.11.11-.06.1-.13.2-.16.32Z"></path><path class="cls-7" d="M34.48,23.82c-.03.1-.05.19-.02.29.01.06.03.12.05.17.01.04.02.07.05.1.06.06.12.11.18.17.03.02.06.04.09.05.07.02.13.03.16.1,0,0,.01.01.03.03,0-.03,0-.06,0-.08,0-.02,0-.05.02-.05.05-.02.08-.06.12-.09.01-.01.04-.01.05-.03.04-.05.08-.11.12-.16.09-.09.13-.21.13-.33,0-.1-.02-.19-.04-.29,0-.04-.03-.08-.05-.12-.06-.09-.14-.16-.22-.23-.06-.05-.11-.1-.14-.16,0,0,0,0,0,0-.02-.02-.03-.06-.06-.07,0,.02,0,.04-.02.06-.05.08-.12.14-.19.21-.04.04-.08.07-.11.11-.06.1-.13.2-.16.32Z"></path><path class="cls-7" d="M28.78,27.52c-.03.1-.05.19-.02.29.01.06.03.12.05.17.01.04.02.07.05.1.06.06.12.11.18.17.03.02.06.04.09.05.07.02.13.03.16.1,0,0,.01.01.03.03,0-.03,0-.06,0-.08,0-.02,0-.05.02-.05.05-.02.08-.06.12-.09.01-.01.04-.01.05-.03.04-.05.08-.11.12-.16.09-.09.13-.21.13-.33,0-.1-.02-.19-.04-.29,0-.04-.03-.08-.05-.12-.06-.09-.14-.16-.22-.23-.06-.05-.11-.1-.14-.16,0,0,0,0,0,0-.02-.02-.03-.06-.06-.07,0,.02,0,.04-.02.06-.05.08-.12.14-.19.21-.04.04-.08.07-.11.11-.06.1-.13.2-.16.32Z"></path><path class="cls-7" d="M37.53,23.3c-.03.1-.05.19-.02.29.01.06.03.12.05.17.01.04.02.07.05.1.06.06.12.11.18.17.03.02.06.04.09.05.07.02.13.03.16.1,0,0,.01.01.03.03,0-.03,0-.06,0-.08,0-.02,0-.05.02-.05.05-.02.08-.06.12-.09.01-.01.04-.01.05-.03.04-.05.08-.11.12-.16.09-.09.13-.21.13-.33,0-.1-.02-.19-.04-.29,0-.04-.03-.08-.05-.12-.06-.09-.14-.16-.22-.23-.06-.05-.11-.1-.14-.16,0,0,0,0,0,0-.02-.02-.03-.06-.06-.07,0,.02,0,.04-.02.06-.05.08-.12.14-.19.21-.04.04-.08.07-.11.11-.06.1-.13.2-.16.32Z"></path><path class="cls-7" d="M40.78,22.51c0,.1,0,.19.05.28.03.05.05.11.09.16.02.03.04.07.07.09.07.05.14.08.22.12.03.02.07.03.1.03.07,0,.13,0,.18.06,0,0,.02.01.03.02,0-.03-.01-.05-.01-.08,0-.02,0-.05,0-.05.04-.03.06-.08.09-.11.01-.01.03-.02.04-.04.03-.06.05-.13.09-.18.07-.11.08-.23.06-.35-.02-.09-.06-.18-.1-.27-.02-.04-.05-.08-.08-.11-.08-.07-.17-.13-.27-.17-.07-.03-.13-.07-.17-.13,0,0,0,0,0,0-.02-.02-.05-.05-.07-.06,0,.02,0,.04,0,.07-.03.09-.09.16-.14.25-.03.04-.07.08-.08.13-.04.11-.08.23-.08.35Z"></path><path class="cls-7" d="M65.03,46.58c.04.1.09.18.18.24.05.04.1.07.15.11.03.02.07.04.1.05.08.01.17.02.26.02.04,0,.08,0,.11-.02.06-.03.12-.05.19-.02,0,0,.02,0,.04,0-.02-.03-.04-.05-.05-.07,0-.02-.03-.04-.02-.05.03-.05.02-.1.03-.14,0-.02.02-.03.02-.05,0-.07-.01-.14,0-.21.01-.13-.04-.25-.11-.34-.06-.08-.14-.14-.22-.21-.03-.03-.08-.05-.12-.06-.11-.03-.22-.04-.33-.04-.08,0-.15,0-.21-.04,0,0,0,0,0,0-.03,0-.06-.02-.1-.02.01.02.02.04.03.06.01.09,0,.19-.01.29,0,.05-.02.11-.01.15.02.12.03.24.09.36Z"></path><path class="cls-7" d="M72.49,40.1c.08.02.16.04.25.01.05-.01.1-.02.15-.04.03,0,.06-.02.09-.04.05-.05.1-.1.14-.15.02-.02.04-.05.04-.08.01-.05.03-.1.08-.13,0,0,.01-.01.02-.02-.03,0-.05,0-.07,0-.02,0-.04,0-.04-.01-.02-.04-.05-.06-.08-.09,0-.01-.01-.03-.02-.04-.05-.03-.1-.06-.14-.1-.08-.07-.18-.1-.28-.11-.08,0-.16.02-.25.03-.04,0-.07.02-.1.04-.08.05-.13.11-.19.18-.04.05-.08.09-.14.11,0,0,0,0,0,0-.02.01-.05.03-.06.05.02,0,.04,0,.05.02.07.04.12.1.18.15.03.03.06.07.09.09.09.05.17.1.28.13Z"></path><path class="cls-7" d="M60.19,25.83c.05-.07.09-.14.1-.22,0-.05.01-.1.02-.15,0-.03,0-.07,0-.09-.03-.06-.06-.12-.09-.18-.01-.03-.03-.05-.06-.07-.05-.03-.09-.06-.09-.12,0,0,0-.01-.01-.03-.01.03-.02.04-.03.06,0,.01-.02.04-.03.04-.04,0-.08.03-.11.04-.01,0-.03,0-.04,0-.05.03-.09.07-.14.09-.1.05-.16.13-.2.22-.03.07-.04.16-.06.24,0,.04,0,.08,0,.11.02.09.06.17.1.24.03.05.05.11.06.17,0,0,0,0,0,0,0,.02,0,.05.02.08,0-.02.02-.03.03-.05.06-.05.14-.08.21-.11.04-.02.08-.03.11-.06.08-.07.16-.13.22-.21Z"></path><path class="cls-7" d="M55.18,23.49c.05-.07.09-.14.1-.22,0-.05.01-.1.02-.15,0-.03,0-.07,0-.09-.03-.06-.06-.12-.09-.18-.01-.03-.03-.05-.06-.07-.05-.03-.09-.06-.09-.12,0,0,0-.01-.01-.03-.01.03-.02.04-.03.06,0,.01-.02.04-.03.04-.04,0-.08.03-.11.04-.01,0-.03,0-.04,0-.05.03-.09.07-.14.09-.1.05-.16.13-.2.22-.03.07-.04.16-.06.24,0,.04,0,.08,0,.11.02.09.06.17.1.24.03.05.05.11.06.17,0,0,0,0,0,0,0,.02,0,.05.02.08,0-.02.02-.03.03-.05.06-.05.14-.08.21-.11.04-.02.08-.03.11-.06.08-.07.16-.13.22-.21Z"></path><path class="cls-7" d="M52.42,22.69c.05-.07.09-.14.1-.22,0-.05.01-.1.02-.15,0-.03,0-.07,0-.09-.03-.06-.06-.12-.09-.18-.01-.03-.03-.05-.06-.07-.05-.03-.09-.06-.09-.12,0,0,0-.01-.01-.03-.01.03-.02.04-.03.06,0,.01-.02.04-.03.04-.04,0-.08.03-.11.04-.01,0-.03,0-.04,0-.05.03-.09.07-.14.09-.1.05-.16.13-.2.22-.03.07-.04.16-.06.24,0,.04,0,.08,0,.11.02.09.06.17.1.24.03.05.05.11.06.17,0,0,0,0,0,0,0,.02,0,.05.02.08,0-.02.02-.03.03-.05.06-.05.14-.08.21-.11.04-.02.08-.03.11-.06.08-.07.16-.13.22-.21Z"></path><path class="cls-7" d="M49.42,21.85c.05-.07.09-.14.1-.22,0-.05.01-.1.02-.15,0-.03,0-.07,0-.09-.03-.06-.06-.12-.09-.18-.01-.03-.03-.05-.06-.07-.05-.03-.09-.06-.09-.12,0,0,0-.01-.01-.03-.01.03-.02.04-.03.06,0,.01-.02.04-.03.04-.04,0-.08.03-.11.04-.01,0-.03,0-.04,0-.05.03-.09.07-.14.09-.1.05-.16.13-.2.22-.03.07-.04.16-.06.24,0,.04,0,.08,0,.11.02.09.06.17.1.24.03.05.05.11.06.17,0,0,0,0,0,0,0,.02,0,.05.02.08,0-.02.02-.03.03-.05.06-.05.14-.08.21-.11.04-.02.08-.03.11-.06.08-.07.16-.13.22-.21Z"></path><path class="cls-7" d="M64.73,29.49c.08-.02.16-.04.23-.1.04-.03.08-.07.11-.1.02-.02.05-.05.06-.07.02-.06.04-.13.06-.2,0-.03,0-.06,0-.09-.01-.05-.02-.1.01-.15,0,0,0-.02.01-.03-.03.01-.04.02-.06.03-.02,0-.04.01-.05,0-.03-.03-.07-.03-.11-.05-.01,0-.02-.02-.04-.02-.06,0-.11-.01-.17-.03-.1-.03-.2,0-.3.03-.07.03-.14.09-.2.14-.03.02-.05.05-.07.09-.05.08-.07.16-.09.25-.01.06-.03.12-.07.16,0,0,0,0,0,0-.01.02-.03.05-.03.07.02,0,.04-.01.06-.01.08,0,.15.03.23.05.04.01.08.03.12.03.1,0,.2.01.31-.01Z"></path><path class="cls-7" d="M65.71,30.31c.08-.02.16-.04.23-.1.04-.03.08-.07.11-.1.02-.02.05-.05.06-.07.02-.06.04-.13.06-.2,0-.03,0-.06,0-.09-.01-.05-.02-.1.01-.15,0,0,0-.02.01-.03-.03.01-.04.02-.06.03-.02,0-.04.01-.05,0-.03-.03-.07-.03-.11-.05-.01,0-.02-.02-.04-.02-.06,0-.11-.01-.17-.03-.1-.03-.2,0-.3.03-.07.03-.14.09-.2.14-.03.02-.05.05-.07.09-.05.08-.07.16-.09.25-.01.06-.03.12-.07.16,0,0,0,0,0,0-.01.02-.03.05-.03.07.02,0,.04-.01.06-.01.08,0,.15.03.23.05.04.01.08.03.12.03.1,0,.2.01.31-.01Z"></path><path class="cls-7" d="M68.72,33.43c.08-.02.16-.04.23-.1.04-.03.08-.07.11-.1.02-.02.05-.05.06-.07.02-.06.04-.13.06-.2,0-.03,0-.06,0-.09-.01-.05-.02-.1.01-.15,0,0,0-.02.01-.03-.03.01-.04.02-.06.03-.02,0-.04.01-.05,0-.03-.03-.07-.03-.11-.05-.01,0-.02-.02-.04-.02-.06,0-.11-.01-.17-.03-.1-.03-.2,0-.3.03-.07.03-.14.09-.2.14-.03.02-.05.05-.07.09-.05.08-.07.16-.09.25-.01.06-.03.12-.07.16,0,0,0,0,0,0-.01.02-.03.05-.03.07.02,0,.04-.01.06-.01.08,0,.15.03.23.05.04.01.08.03.12.03.1,0,.2.01.31-.01Z"></path><path class="cls-7" d="M70.75,36.21c.08,0,.15,0,.23-.04.04-.02.08-.04.13-.07.03-.01.05-.03.07-.05.04-.05.07-.11.1-.16.01-.02.02-.05.02-.08,0-.05,0-.1.05-.14,0,0,0-.01.02-.03-.03,0-.04,0-.06,0-.01,0-.04,0-.04,0-.02-.03-.06-.05-.09-.07-.01,0-.02-.02-.03-.03-.05-.02-.1-.04-.15-.06-.09-.05-.18-.05-.28-.04-.07.01-.15.05-.22.08-.03.01-.06.04-.08.06-.06.06-.1.13-.14.2-.03.05-.06.1-.1.13,0,0,0,0,0,0-.02.02-.04.04-.05.06.02,0,.04,0,.05,0,.07.02.13.06.2.1.03.02.07.05.1.06.09.03.18.06.28.06Z"></path><path class="cls-7" d="M73.61,43.29c.08.02.16.04.25.01.05-.01.1-.02.15-.04.03,0,.06-.02.09-.04.05-.05.1-.1.14-.15.02-.02.04-.05.04-.08.01-.05.03-.1.08-.13,0,0,.01-.01.02-.02-.03,0-.05,0-.07,0-.02,0-.04,0-.04-.01-.02-.04-.05-.06-.08-.09,0-.01-.01-.03-.02-.04-.05-.03-.1-.06-.14-.1-.08-.07-.18-.1-.28-.11-.08,0-.16.02-.25.03-.04,0-.07.02-.1.04-.08.05-.13.11-.19.18-.04.05-.08.09-.14.11,0,0,0,0,0,0-.02.01-.05.03-.06.05.02,0,.04,0,.05.02.07.04.12.1.18.15.03.03.06.07.09.09.09.05.17.1.28.13Z"></path><path class="cls-7" d="M71.98,46.55c.04.08.08.15.15.19.04.03.08.06.13.09.03.02.06.04.09.04.07,0,.14,0,.21,0,.03,0,.06,0,.08-.02.05-.03.1-.05.15-.02,0,0,.02,0,.03,0-.02-.02-.03-.04-.04-.05,0-.01-.02-.03-.02-.04.02-.04.01-.08.02-.12,0-.01.01-.03.01-.04,0-.06-.02-.11-.02-.17,0-.11-.04-.2-.1-.28-.05-.06-.12-.11-.19-.16-.03-.02-.06-.04-.1-.05-.09-.03-.17-.03-.26-.03-.06,0-.12,0-.17-.03,0,0,0,0,0,0-.02,0-.05-.02-.08-.02.01.02.02.03.02.05.02.08,0,.16,0,.24,0,.04-.01.09,0,.13.02.1.04.2.09.29Z"></path><path class="cls-7" d="M67.7,46.63c.04.08.08.15.15.19.04.03.08.06.13.09.03.02.06.04.09.04.07,0,.14,0,.21,0,.03,0,.06,0,.08-.02.05-.03.1-.05.15-.02,0,0,.02,0,.03,0-.02-.02-.03-.04-.04-.05,0-.01-.02-.03-.02-.04.02-.04.01-.08.02-.12,0-.01.01-.03.01-.04,0-.06-.02-.11-.02-.17,0-.11-.04-.2-.1-.28-.05-.06-.12-.11-.19-.16-.03-.02-.06-.04-.1-.05-.09-.03-.17-.03-.26-.03-.06,0-.12,0-.17-.03,0,0,0,0,0,0-.02,0-.05-.02-.08-.02.01.02.02.03.02.05.02.08,0,.16,0,.24,0,.04-.01.09,0,.13.02.1.04.2.09.29Z"></path><path class="cls-7" d="M25.31,47.3c-.02-.1-.05-.19-.11-.27-.04-.05-.08-.09-.12-.14-.03-.03-.05-.06-.09-.07-.08-.03-.16-.05-.24-.07-.03,0-.07-.01-.11,0-.07.01-.13.02-.19-.02,0,0-.02,0-.04-.01.01.03.02.05.03.07,0,.02.02.05,0,.05-.04.04-.04.09-.06.13,0,.02-.03.03-.03.05-.01.07-.02.13-.04.2-.04.12-.02.24.03.35.04.09.1.17.16.25.03.04.06.07.1.09.09.06.2.09.3.11.07.02.14.04.19.09,0,0,0,0,0,0,.03.02.06.04.09.04,0-.02-.01-.04-.01-.07,0-.09.05-.18.07-.27.01-.05.05-.09.05-.14,0-.12.02-.24,0-.36Z"></path><path class="cls-7" d="M28.57,46.28c-.02-.1-.05-.19-.11-.27-.04-.05-.08-.09-.12-.14-.03-.03-.05-.06-.09-.07-.08-.03-.16-.05-.24-.07-.03,0-.07-.01-.11,0-.07.01-.13.02-.19-.02,0,0-.02,0-.04-.01.01.03.02.05.03.07,0,.02.02.05,0,.05-.04.04-.04.09-.06.13,0,.02-.03.03-.03.05-.01.07-.02.13-.04.2-.04.12-.02.24.03.35.04.09.1.17.16.25.03.04.06.07.1.09.09.06.2.09.3.11.07.02.14.04.19.09,0,0,0,0,0,0,.03.02.06.04.09.04,0-.02-.01-.04-.01-.07,0-.09.05-.18.07-.27.01-.05.05-.09.05-.14,0-.12.02-.24,0-.36Z"></path><path class="cls-1" d="M69.65,36.34c-.17,0-.33,0-.48.07-.09.04-.18.08-.27.13-.05.03-.12.06-.15.11-.08.11-.15.23-.21.34-.03.05-.05.11-.05.16,0,.11-.01.21-.11.28-.01,0-.02.03-.04.05.06,0,.09-.02.13-.02.03,0,.08,0,.09,0,.05.07.13.1.19.15.02.02.04.05.06.06.1.05.21.08.31.14.18.11.39.13.59.1.16-.02.31-.1.47-.16.07-.03.13-.07.18-.12.13-.12.22-.27.3-.42.06-.1.12-.2.22-.27,0,0,0,0,0,0,.04-.03.08-.07.1-.12-.04,0-.08,0-.11-.01-.15-.05-.28-.15-.41-.23-.07-.04-.14-.11-.22-.13-.19-.06-.38-.13-.59-.14Z"></path><path class="cls-6" d="M69.77,42.9c-.11-.12-.22-.23-.37-.28-.09-.03-.18-.07-.28-.09-.06-.02-.12-.04-.18-.03-.13.02-.26.05-.39.09-.05.01-.11.04-.15.08-.08.07-.16.13-.28.12-.01,0-.03,0-.06.01.04.03.07.05.1.08.02.02.06.05.05.07-.02.08.01.15.02.23,0,.03-.01.06,0,.09.03.1.09.2.11.3.04.2.17.35.33.46.12.09.28.15.43.21.06.03.14.04.21.04.17,0,.34-.04.5-.08.11-.03.23-.05.34-.03,0,0,0,0,0,0,.05,0,.11,0,.15,0-.03-.02-.05-.05-.07-.08-.06-.13-.08-.28-.12-.43-.02-.08-.02-.17-.05-.23-.09-.17-.16-.34-.3-.49Z"></path><path class="cls-7" d="M70.9,45.76c-.11-.12-.22-.23-.37-.28-.09-.03-.18-.07-.28-.09-.06-.02-.12-.04-.18-.03-.13.02-.26.05-.39.09-.05.01-.11.04-.15.08-.08.07-.16.13-.28.12-.01,0-.03,0-.06.01.04.03.07.05.1.08.02.02.06.05.05.07-.02.08.01.15.02.23,0,.03-.01.06,0,.09.03.1.09.2.11.3.04.2.17.35.33.46.12.09.28.15.43.21.06.03.14.04.21.04.17,0,.34-.04.5-.08.11-.03.23-.05.34-.03,0,0,0,0,0,0,.05,0,.11,0,.15,0-.03-.02-.05-.05-.07-.08-.06-.13-.08-.28-.12-.43-.02-.08-.02-.17-.05-.23-.09-.17-.16-.34-.3-.49Z"></path><path class="cls-1" d="M72.92,43.51c-.15-.08-.29-.14-.46-.14-.1,0-.2,0-.3,0-.06,0-.13,0-.18.04-.12.07-.23.14-.34.22-.05.03-.09.08-.12.13-.05.1-.1.18-.22.21-.01,0-.03.02-.06.03.05.02.09.02.12.04.03.01.08.03.08.05.01.08.07.14.1.21.01.03.01.06.03.08.07.09.16.16.22.25.12.18.29.27.48.33.15.04.32.04.48.05.07,0,.15-.01.22-.03.17-.06.31-.15.45-.26.1-.07.2-.13.31-.15,0,0,0,0,0,0,.05-.02.1-.03.14-.06-.04-.01-.07-.03-.1-.06-.11-.1-.19-.24-.27-.37-.05-.07-.08-.15-.14-.21-.15-.13-.28-.27-.47-.37Z"></path><path class="cls-1" d="M74.88,46.2c-.09-.1-.18-.18-.3-.23-.07-.03-.15-.05-.22-.07-.05-.01-.1-.03-.14-.02-.11.02-.21.04-.31.07-.04.01-.09.03-.12.06-.06.06-.13.11-.22.1-.01,0-.02,0-.05.01.03.03.06.04.08.06.02.02.05.04.04.06-.01.06.01.12.02.19,0,.02,0,.05,0,.07.03.08.07.16.09.24.04.16.14.28.27.37.1.07.23.12.34.17.05.02.11.03.17.03.14,0,.27-.03.41-.07.09-.03.18-.04.27-.03,0,0,0,0,0,0,.04,0,.09,0,.12,0-.02-.02-.04-.04-.06-.07-.05-.11-.07-.23-.1-.35-.02-.06-.01-.13-.04-.19-.07-.14-.13-.28-.24-.4Z"></path><path class="cls-1" d="M70.86,41.78c-.12-.07-.24-.12-.38-.13-.08,0-.17,0-.25,0-.05,0-.11,0-.15.03-.1.05-.19.11-.29.17-.04.03-.08.06-.1.1-.04.08-.09.15-.19.17-.01,0-.02.01-.05.03.04.01.07.02.1.03.02.01.06.02.06.04,0,.07.05.12.08.18,0,.02,0,.05.02.07.06.07.12.14.17.21.09.15.23.23.39.28.13.04.27.04.4.05.06,0,.12,0,.18-.02.14-.04.26-.12.38-.2.08-.06.17-.1.26-.12,0,0,0,0,0,0,.04-.01.09-.02.12-.05-.03-.01-.06-.03-.08-.05-.09-.09-.15-.21-.22-.31-.04-.06-.06-.13-.11-.17-.12-.11-.23-.23-.38-.32Z"></path><path class="cls-1" d="M71.36,40.02c-.11-.03-.21-.05-.32-.02-.06.02-.13.03-.19.05-.04.01-.08.02-.11.05-.07.06-.13.13-.19.19-.02.03-.05.06-.06.1-.02.07-.04.13-.11.17,0,0-.02.01-.03.03.04,0,.06,0,.09,0,.02,0,.05,0,.06.02.02.05.07.08.1.12.01.02.02.04.03.05.06.05.13.08.18.13.1.1.23.13.36.14.11,0,.21-.02.32-.04.05,0,.09-.03.14-.05.1-.06.18-.14.25-.23.05-.06.11-.11.18-.14,0,0,0,0,0,0,.03-.02.06-.04.08-.06-.03,0-.05,0-.07-.02-.09-.05-.16-.13-.23-.2-.04-.04-.07-.09-.12-.11-.12-.06-.23-.13-.36-.17Z"></path><path class="cls-1" d="M72.91,41.15c-.11-.03-.21-.05-.32-.02-.06.02-.13.03-.19.05-.04.01-.08.02-.11.05-.07.06-.13.13-.19.19-.02.03-.05.06-.06.1-.02.07-.04.13-.11.17,0,0-.02.01-.03.03.04,0,.06,0,.09,0,.02,0,.05,0,.06.02.02.05.07.08.1.12.01.02.02.04.03.05.06.05.13.08.18.13.1.1.23.13.36.14.11,0,.21-.02.32-.04.05,0,.09-.03.14-.05.1-.06.18-.14.25-.23.05-.06.11-.11.18-.14,0,0,0,0,0,0,.03-.02.06-.04.08-.06-.03,0-.05,0-.07-.02-.09-.05-.16-.13-.23-.2-.04-.04-.07-.09-.12-.11-.12-.06-.23-.13-.36-.17Z"></path><path class="cls-1" d="M67.9,44.42c-.02-.11-.05-.21-.12-.29-.04-.05-.08-.1-.13-.15-.03-.03-.06-.06-.1-.08-.08-.03-.17-.06-.26-.08-.04,0-.08-.01-.11,0-.07.02-.14.02-.2-.02,0,0-.02,0-.04-.01.01.03.02.06.03.08,0,.02.02.05,0,.06-.04.04-.05.09-.07.14,0,.02-.03.03-.03.05-.02.07-.02.15-.04.21-.04.13-.02.26.03.38.04.1.11.18.18.26.03.04.07.07.11.09.1.06.21.09.32.12.08.02.15.04.21.09,0,0,0,0,0,0,.03.02.06.04.09.05,0-.02-.01-.05-.01-.07,0-.1.05-.19.08-.29.02-.05.05-.1.05-.16,0-.13.02-.26,0-.39Z"></path><path class="cls-1" d="M61.56,44.31c-.02-.11-.05-.21-.12-.29-.04-.05-.08-.1-.13-.15-.03-.03-.06-.06-.1-.08-.08-.03-.17-.06-.26-.08-.04,0-.08-.01-.11,0-.07.02-.14.02-.2-.02,0,0-.02,0-.04-.01.01.03.02.06.03.08,0,.02.02.05,0,.06-.04.04-.05.09-.07.14,0,.02-.03.03-.03.05-.02.07-.02.15-.04.21-.04.13-.02.26.03.38.04.1.11.18.18.26.03.04.07.07.11.09.1.06.21.09.32.12.08.02.15.04.21.09,0,0,0,0,0,0,.03.02.06.04.09.05,0-.02-.01-.05-.01-.07,0-.1.05-.19.08-.29.02-.05.05-.1.05-.16,0-.13.02-.26,0-.39Z"></path><path class="cls-1" d="M58.27,45.48c0-.11,0-.21-.06-.31-.03-.06-.06-.11-.1-.17-.02-.03-.04-.07-.08-.09-.08-.05-.16-.09-.24-.13-.03-.02-.07-.03-.11-.03-.07,0-.14,0-.2-.06,0,0-.02-.01-.04-.02,0,.04.01.06.01.08,0,.02,0,.05,0,.06-.05.03-.06.08-.1.12-.01.02-.03.03-.04.04-.03.07-.05.14-.09.2-.07.12-.08.25-.05.38.02.1.07.2.12.29.02.04.05.08.09.11.09.08.19.13.29.18.07.03.14.07.19.13,0,0,0,0,0,0,.02.02.05.05.08.06,0-.02,0-.05,0-.07.03-.1.09-.18.14-.27.03-.05.07-.09.08-.14.04-.12.08-.25.08-.38Z"></path><path class="cls-1" d="M64.17,47.16c-.02-.11-.05-.21-.12-.29-.04-.05-.08-.1-.13-.15-.03-.03-.06-.06-.1-.08-.08-.03-.17-.06-.26-.08-.04,0-.08-.01-.11,0-.07.02-.14.02-.2-.02,0,0-.02,0-.04-.01.01.03.02.06.03.08,0,.02.02.05,0,.06-.04.04-.05.09-.07.14,0,.02-.03.03-.03.05-.02.07-.02.15-.04.21-.04.13-.02.26.03.38.04.1.11.18.18.26.03.04.07.07.11.09.1.06.21.09.32.12.08.02.15.04.21.09,0,0,0,0,0,0,.03.02.06.04.09.05,0-.02-.01-.05-.01-.07,0-.1.05-.19.08-.29.02-.05.05-.1.05-.16,0-.13.02-.26,0-.39Z"></path><path class="cls-1" d="M66.87,45.77c-.02-.08-.04-.15-.09-.21-.03-.04-.06-.07-.1-.11-.02-.02-.04-.05-.07-.06-.06-.02-.13-.04-.19-.06-.03,0-.06,0-.09,0-.05.01-.1.02-.15-.02,0,0-.01,0-.03-.01.01.02.02.04.02.06,0,.01.01.04,0,.04-.03.03-.03.07-.05.11,0,.01-.02.02-.02.04-.01.05-.01.11-.03.16-.03.1-.02.19.02.28.03.07.08.13.13.2.02.03.05.05.08.07.07.04.16.07.24.09.06.01.11.03.16.07,0,0,0,0,0,0,.02.01.05.03.07.03,0-.02,0-.03,0-.05,0-.07.04-.15.06-.22.01-.04.04-.08.04-.12,0-.1.02-.19,0-.29Z"></path><path class="cls-1" d="M55.35,46.27c.03-.08.05-.15.03-.23,0-.05-.02-.1-.03-.14,0-.03-.01-.06-.03-.08-.04-.05-.09-.1-.14-.14-.02-.02-.05-.04-.07-.05-.05-.02-.1-.04-.12-.09,0,0-.01-.01-.02-.02,0,.03,0,.04,0,.06,0,.01,0,.04-.02.04-.04.01-.07.04-.1.07-.01,0-.03,0-.04.02-.04.04-.07.09-.11.12-.08.07-.11.16-.13.25-.01.08,0,.16.01.23,0,.03.02.07.03.1.04.07.1.14.16.19.04.04.08.08.1.14,0,0,0,0,0,0,.01.02.02.05.04.06,0-.02,0-.03.02-.05.04-.06.11-.11.17-.16.03-.03.07-.05.09-.08.06-.08.12-.16.15-.25Z"></path><path class="cls-1" d="M20.53,48.29c.03-.08.05-.15.03-.23,0-.05-.02-.1-.03-.14,0-.03-.01-.06-.03-.08-.04-.05-.09-.1-.14-.14-.02-.02-.05-.04-.07-.05-.05-.02-.1-.04-.12-.09,0,0-.01-.01-.02-.02,0,.03,0,.04,0,.06,0,.01,0,.04-.02.04-.04.01-.07.04-.1.07-.01,0-.03,0-.04.02-.04.04-.07.09-.11.12-.08.07-.11.16-.13.25-.01.08,0,.16.01.23,0,.03.02.07.03.1.04.07.1.14.16.19.04.04.08.08.1.14,0,0,0,0,0,0,.01.02.02.05.04.06,0-.02,0-.03.02-.05.04-.06.11-.11.17-.16.03-.03.07-.05.09-.08.06-.08.12-.16.15-.25Z"></path><path class="cls-1" d="M71.54,38.16c-.11-.03-.21-.05-.32-.02-.06.02-.13.03-.19.05-.04.01-.08.02-.11.05-.07.06-.13.13-.19.19-.02.03-.05.06-.06.1-.02.07-.04.13-.11.17,0,0-.02.01-.03.03.04,0,.06,0,.09,0,.02,0,.05,0,.06.02.02.05.07.08.1.12.01.02.02.04.03.05.06.05.13.08.18.13.1.1.23.13.36.14.11,0,.21-.02.32-.04.05,0,.09-.03.14-.05.1-.06.18-.14.25-.23.05-.06.11-.11.18-.14,0,0,0,0,0,0,.03-.02.06-.04.08-.06-.03,0-.05,0-.07-.02-.09-.05-.16-.13-.23-.2-.04-.04-.07-.09-.12-.11-.12-.06-.23-.13-.36-.17Z"></path><path class="cls-1" d="M69.36,34.18c-.16-.04-.3-.07-.46-.03-.09.02-.19.04-.28.07-.06.02-.12.03-.16.07-.1.09-.18.18-.27.28-.04.04-.07.09-.08.14-.03.1-.06.19-.16.24-.01,0-.02.02-.04.04.05,0,.09,0,.12,0,.03,0,.08,0,.08.03.03.08.1.12.14.18.02.02.02.06.04.07.08.07.18.12.26.19.15.14.33.19.52.2.15,0,.31-.03.46-.05.07-.01.14-.04.2-.08.14-.09.26-.21.36-.33.07-.09.16-.16.26-.21,0,0,0,0,0,0,.04-.03.09-.05.12-.09-.04,0-.07-.01-.1-.03-.13-.07-.23-.19-.34-.29-.06-.05-.11-.13-.17-.17-.17-.09-.33-.19-.52-.25Z"></path><path class="cls-4" d="M68.63,38.77c-.21-.06-.4-.1-.61-.05-.12.03-.25.05-.37.09-.07.02-.16.04-.21.09-.13.11-.25.23-.36.36-.05.05-.09.12-.11.18-.04.13-.08.25-.22.32-.02,0-.03.03-.06.06.07,0,.12,0,.16.02.04,0,.1.01.11.04.04.1.13.16.19.23.02.03.03.07.06.1.11.09.24.16.33.26.19.19.43.26.69.28.2.01.41-.03.61-.06.09-.01.18-.05.26-.1.19-.11.34-.27.49-.43.1-.11.21-.21.34-.26,0,0,0,0,0,0,.05-.03.12-.07.16-.11-.05,0-.09-.02-.13-.04-.16-.1-.29-.25-.44-.39-.08-.07-.14-.17-.22-.22-.22-.13-.42-.26-.68-.34Z"></path><path class="cls-7" d="M43.19,32.56c-.24.42-.43.83-.43,1.31,0,.28,0,.57.02.85.01.17.02.37.1.51.19.34.42.66.66.97.1.13.23.26.37.33.29.14.54.3.63.63.01.04.05.08.1.16.05-.15.08-.25.12-.35.04-.08.08-.21.14-.22.25-.03.43-.2.64-.29.08-.04.19-.03.25-.08.26-.2.49-.44.76-.61.53-.33.82-.82.99-1.36.14-.43.14-.91.16-1.37.01-.2-.03-.42-.1-.62-.17-.47-.45-.88-.76-1.29-.21-.27-.39-.56-.44-.88,0,0,0-.01,0-.02-.05-.13-.09-.3-.18-.4-.04.1-.09.19-.17.27-.32.31-.74.52-1.12.76-.21.13-.46.21-.63.38-.4.41-.83.8-1.12,1.32Z"></path><path class="cls-4" d="M32.92,37.98c.07.25.16.47.34.65.11.11.22.21.33.31.07.06.15.13.24.16.2.06.41.09.62.13.09.01.18.01.27-.01.16-.05.32-.09.48,0,.02.01.05.01.1.02-.04-.07-.07-.12-.09-.18-.02-.04-.05-.11-.03-.13.08-.1.08-.23.13-.34.02-.04.06-.08.06-.12.02-.17.01-.34.05-.5.08-.32,0-.61-.15-.87-.12-.21-.3-.39-.47-.58-.07-.08-.17-.15-.27-.2-.25-.12-.51-.17-.78-.21-.18-.03-.36-.07-.51-.17,0,0,0,0,0,0-.07-.03-.15-.08-.22-.09.02.05.04.11.04.16,0,.23-.08.46-.13.69-.03.12-.09.25-.09.37,0,.3,0,.6.09.9Z"></path><path class="cls-1" d="M35.07,32.92c-.1.41-.15.79-.03,1.19.07.24.14.48.23.71.05.14.11.3.22.41.25.24.52.45.79.66.11.09.26.16.39.19.28.05.53.12.68.38.02.03.06.05.12.11,0-.14,0-.23.01-.32,0-.08.02-.2.06-.22.2-.09.31-.26.46-.39.06-.05.15-.07.19-.12.17-.22.3-.48.49-.68.36-.4.48-.88.49-1.37,0-.4-.11-.8-.21-1.19-.04-.17-.13-.35-.24-.49-.26-.36-.6-.64-.95-.9-.24-.18-.46-.38-.59-.64,0,0,0,0-.01-.01-.07-.1-.15-.23-.25-.3,0,.09-.03.18-.07.27-.19.33-.49.61-.75.9-.14.16-.33.29-.43.46-.23.44-.49.86-.61,1.36Z"></path><path class="cls-6" d="M25.63,42.78c.21.27.42.5.73.64.19.08.37.16.56.23.12.04.25.09.37.08.28-.02.55-.07.82-.13.11-.02.23-.07.32-.14.18-.14.35-.25.59-.21.03,0,.06,0,.13-.02-.08-.07-.15-.12-.2-.18-.04-.05-.12-.11-.1-.15.05-.16,0-.32,0-.48,0-.06.03-.12.02-.18-.05-.22-.15-.43-.18-.65-.06-.42-.3-.75-.61-1.01-.25-.21-.56-.35-.85-.5-.13-.07-.29-.1-.43-.12-.36-.03-.71.02-1.06.1-.24.05-.48.08-.71.02,0,0,0,0-.01,0-.1,0-.22-.03-.32,0,.06.05.1.11.13.18.11.28.13.61.18.91.03.17,0,.35.07.5.15.37.29.74.54,1.07Z"></path><path class="cls-1" d="M40.42,30.29c-.15.27-.27.52-.27.83,0,.18,0,.36.01.54,0,.11.01.23.07.33.12.21.27.42.42.61.06.08.14.16.24.21.18.09.35.19.4.4,0,.03.03.05.06.1.03-.09.05-.16.08-.22.02-.05.05-.13.09-.14.16-.02.27-.12.4-.19.05-.02.12-.02.16-.05.16-.12.31-.28.48-.38.34-.21.52-.52.63-.86.09-.28.09-.58.1-.87,0-.13-.02-.27-.06-.39-.11-.3-.29-.56-.48-.81-.13-.17-.24-.36-.28-.56,0,0,0,0,0-.01-.03-.08-.06-.19-.11-.26-.02.06-.06.12-.11.17-.2.2-.47.33-.71.48-.13.08-.29.13-.4.24-.25.26-.52.51-.71.84Z"></path><path class="cls-7" d="M31.42,32.34c-.04.3-.05.58.06.86.07.17.14.33.21.49.05.1.1.21.18.28.19.15.4.29.61.41.09.05.19.1.3.11.2.02.39.05.52.23.02.02.05.03.1.07,0-.1-.02-.17-.01-.23,0-.06,0-.14.03-.16.14-.08.2-.21.3-.31.04-.04.1-.06.13-.1.1-.17.18-.36.3-.52.23-.31.28-.66.25-1.02-.03-.28-.14-.56-.23-.84-.04-.12-.12-.24-.21-.34-.21-.24-.47-.41-.75-.58-.19-.11-.36-.24-.47-.41,0,0,0,0,0,0-.06-.07-.13-.15-.2-.2,0,.07,0,.13-.03.2-.11.25-.31.47-.47.7-.09.12-.22.23-.27.36-.14.33-.29.65-.34,1.02Z"></path><path class="cls-1" d="M29.19,35.78c-.09.28-.16.54-.1.83.03.17.07.34.11.51.03.1.06.22.12.3.16.18.33.35.51.51.07.07.17.13.26.16.19.06.36.12.45.31.01.02.04.04.08.08.01-.1.02-.16.03-.23.01-.05.03-.14.06-.15.15-.05.23-.17.35-.25.04-.03.11-.04.14-.07.13-.15.24-.32.39-.45.28-.25.4-.59.44-.93.03-.28-.03-.56-.06-.84-.02-.12-.07-.25-.13-.36-.16-.27-.38-.48-.61-.69-.16-.14-.3-.3-.37-.48,0,0,0,0,0-.01-.05-.07-.09-.17-.16-.22-.01.07-.03.13-.07.18-.15.22-.38.39-.58.58-.11.1-.25.18-.33.3-.19.29-.4.57-.52.92Z"></path><path class="cls-6" d="M27.38,32.4c-.14.24-.25.48-.25.76,0,.16,0,.33.01.49,0,.1.01.21.06.3.11.19.24.38.38.56.06.08.13.15.22.19.17.08.32.17.36.37,0,.02.03.05.06.09.03-.09.04-.15.07-.2.02-.05.05-.12.08-.13.14-.02.25-.11.37-.17.05-.02.11-.02.15-.05.15-.11.28-.25.44-.35.31-.19.48-.48.57-.79.08-.25.08-.53.09-.79,0-.12-.02-.24-.06-.36-.1-.27-.26-.51-.44-.74-.12-.16-.22-.33-.26-.51,0,0,0,0,0-.01-.03-.08-.05-.17-.1-.23-.02.06-.05.11-.1.16-.18.18-.43.3-.65.44-.12.08-.27.12-.36.22-.23.24-.48.46-.65.76Z"></path><path class="cls-6" d="M48.53,32.08c-.16.23-.29.45-.32.73-.02.16-.03.33-.04.49,0,.1,0,.21.03.3.09.2.21.4.32.59.05.08.12.16.2.21.16.1.3.2.32.4,0,.02.02.05.05.1.04-.08.06-.14.09-.2.03-.04.06-.12.09-.12.15,0,.26-.09.38-.13.05-.02.11,0,.15-.03.16-.1.31-.23.47-.31.33-.16.52-.43.65-.73.1-.24.13-.52.17-.78.02-.12,0-.25-.02-.36-.07-.28-.21-.53-.36-.78-.1-.17-.19-.35-.2-.53,0,0,0,0,0-.01-.02-.08-.04-.18-.08-.24-.03.06-.06.11-.11.15-.2.16-.45.26-.69.38-.13.07-.28.1-.38.18-.26.22-.52.42-.72.7Z"></path><path class="cls-1" d="M55.29,29.87c-.22.18-.4.37-.5.63-.06.15-.12.31-.16.47-.03.1-.06.2-.05.3.04.22.1.44.16.65.03.09.07.18.14.25.13.13.23.27.21.46,0,.02.01.05.02.11.06-.07.09-.12.14-.17.04-.04.09-.1.12-.09.14.03.27-.02.41-.03.05,0,.11.02.15,0,.18-.06.35-.14.54-.18.36-.07.62-.29.82-.55.16-.21.26-.47.37-.71.05-.11.07-.24.07-.35,0-.29-.06-.57-.15-.85-.06-.19-.09-.38-.06-.57,0,0,0,0,0-.01,0-.08,0-.18-.01-.25-.04.05-.09.09-.15.11-.23.11-.51.14-.76.2-.14.03-.3.03-.42.09-.3.15-.61.27-.88.5Z"></path><path class="cls-1" d="M63.8,31.06c-.19.11-.35.23-.45.42-.06.11-.12.22-.18.34-.03.07-.07.15-.07.23,0,.18.02.35.05.53,0,.07.03.15.07.21.08.12.15.24.11.39,0,.02,0,.04,0,.09.05-.05.08-.08.12-.11.03-.02.08-.07.1-.06.1.04.21.02.31.03.04,0,.08.03.12.02.14-.02.29-.07.43-.07.28-.01.5-.14.68-.32.15-.14.25-.33.36-.51.05-.08.08-.17.1-.27.04-.22.02-.45-.02-.68-.02-.16-.03-.31.02-.45,0,0,0,0,0,0,0-.06.03-.14.02-.2-.04.03-.08.06-.13.07-.19.05-.4.04-.6.05-.11,0-.23-.02-.33.01-.25.07-.5.13-.72.27Z"></path><path class="cls-7" d="M58.93,30.23c-.08.2-.13.4-.1.61.02.13.04.25.07.38.02.08.04.16.08.22.11.14.24.26.36.39.05.05.12.1.19.12.14.04.26.1.32.24,0,.02.03.03.06.06.01-.07.02-.12.03-.16.01-.04.02-.1.05-.11.11-.03.18-.12.26-.17.03-.02.08-.03.11-.05.1-.11.18-.23.3-.32.21-.18.31-.42.34-.67.03-.2,0-.42-.03-.62,0-.09-.04-.19-.09-.27-.11-.2-.26-.36-.43-.52-.11-.11-.21-.22-.26-.36,0,0,0,0,0,0-.03-.06-.06-.13-.11-.17,0,.05-.03.09-.06.13-.12.16-.29.28-.44.42-.08.07-.19.13-.25.21-.15.21-.31.41-.4.66Z"></path><path class="cls-1" d="M57.75,27.25c-.09.17-.16.33-.15.52,0,.11,0,.22.02.33,0,.07.01.14.05.2.08.13.17.25.27.37.04.05.09.1.15.12.11.05.22.11.25.24,0,.02.02.03.04.06.02-.06.03-.1.04-.14.01-.03.03-.08.05-.09.1-.02.16-.08.25-.12.03-.02.07-.01.1-.03.1-.08.18-.18.29-.25.2-.13.31-.33.37-.55.05-.17.04-.36.04-.54,0-.08-.02-.16-.05-.24-.07-.18-.19-.34-.31-.49-.09-.1-.16-.22-.19-.34,0,0,0,0,0,0-.02-.05-.04-.11-.08-.16-.01.04-.03.08-.06.11-.12.13-.28.21-.43.31-.08.05-.18.09-.24.16-.15.17-.31.32-.42.53Z"></path><path class="cls-1" d="M57.06,24.88c-.1.11-.18.22-.21.36-.02.08-.04.17-.05.25,0,.05-.02.11,0,.16.04.11.08.22.13.33.02.05.05.09.09.12.08.06.14.13.14.23,0,.01,0,.03.02.05.02-.04.04-.07.06-.1.02-.02.04-.06.06-.06.08,0,.14-.03.21-.04.03,0,.06,0,.08,0,.09-.04.17-.1.27-.13.18-.06.3-.19.38-.34.07-.12.1-.26.14-.4.02-.06.02-.13.01-.19-.02-.15-.08-.29-.14-.43-.04-.1-.08-.19-.07-.29,0,0,0,0,0,0,0-.04,0-.09-.03-.13-.02.03-.04.05-.07.07-.11.07-.25.1-.38.15-.07.03-.15.03-.21.07-.15.1-.3.18-.42.32Z"></path><path class="cls-6" d="M60.23,36.95c-.18.07-.33.14-.45.29-.07.09-.14.17-.21.26-.04.06-.09.12-.1.18-.03.15-.04.3-.04.45,0,.06,0,.13.03.19.05.11.09.22.03.34,0,.02,0,.03,0,.07.05-.03.09-.06.12-.08.03-.02.08-.04.1-.03.08.05.18.04.27.07.03,0,.06.04.1.04.13,0,.26-.01.38,0,.24.03.45-.05.64-.17.15-.1.27-.24.39-.37.05-.06.1-.13.12-.21.07-.18.08-.37.09-.57,0-.13.02-.26.09-.37,0,0,0,0,0,0,.02-.05.05-.11.05-.16-.04.02-.08.04-.12.04-.17.02-.35-.02-.53-.04-.1,0-.19-.05-.28-.04-.22.03-.45.04-.67.13Z"></path><path class="cls-4" d="M61.23,32.18c-.17.05-.33.1-.46.22-.08.07-.15.14-.23.22-.04.05-.09.1-.11.16-.04.13-.07.27-.1.41-.01.06-.01.12,0,.18.03.11.06.21-.01.32,0,.01,0,.03-.02.07.05-.03.09-.05.13-.06.03-.01.08-.03.1-.02.07.06.16.06.24.09.03.01.05.04.08.04.12.02.24.01.36.04.22.05.43,0,.62-.09.15-.08.28-.2.41-.31.06-.05.11-.11.14-.18.09-.16.12-.34.16-.52.02-.12.05-.24.13-.34,0,0,0,0,0,0,.02-.05.06-.1.06-.15-.04.02-.08.03-.12.03-.16,0-.33-.06-.49-.09-.09-.02-.17-.06-.26-.06-.21,0-.43,0-.64.05Z"></path><path class="cls-1" d="M62.76,34.82c-.08.16-.14.31-.14.48,0,.1,0,.21.02.31,0,.06.01.13.05.19.08.12.16.23.25.34.04.05.09.09.14.12.11.05.2.1.24.22,0,.02.02.03.04.06.02-.06.02-.09.04-.13.01-.03.03-.08.05-.08.09-.01.15-.08.23-.11.03-.01.07-.01.09-.03.09-.07.17-.17.27-.23.19-.13.29-.31.34-.51.04-.16.04-.33.04-.5,0-.07-.02-.15-.04-.22-.07-.17-.18-.32-.29-.46-.08-.1-.15-.2-.17-.32,0,0,0,0,0,0-.02-.05-.04-.11-.07-.15-.01.04-.03.07-.06.1-.11.12-.26.2-.4.29-.07.05-.17.08-.22.15-.14.16-.29.3-.39.49Z"></path><path class="cls-1" d="M62.17,30.2c-.1.09-.18.18-.21.3-.02.07-.05.15-.06.22-.01.05-.02.1-.01.14.02.1.06.2.09.31.01.04.04.09.07.12.06.06.12.12.11.22,0,.01,0,.02.01.05.02-.03.04-.06.06-.08.02-.02.04-.05.05-.05.07.01.13-.02.19-.02.02,0,.05,0,.07,0,.08-.03.16-.07.24-.09.16-.04.28-.15.36-.27.07-.1.11-.23.15-.34.02-.05.03-.11.02-.17,0-.14-.05-.27-.09-.4-.03-.09-.05-.18-.04-.27,0,0,0,0,0,0,0-.04,0-.08-.01-.12-.02.02-.04.04-.07.06-.11.05-.23.07-.35.11-.06.02-.14.02-.19.05-.14.07-.28.14-.39.25Z"></path><path class="cls-1" d="M62.86,27.74c-.1.09-.18.18-.21.3-.02.07-.05.15-.06.22-.01.05-.02.1-.01.14.02.1.06.2.09.31.01.04.04.09.07.12.06.06.12.12.11.22,0,.01,0,.02.01.05.02-.03.04-.06.06-.08.02-.02.04-.05.05-.05.07.01.13-.02.19-.02.02,0,.05,0,.07,0,.08-.03.16-.07.24-.09.16-.04.28-.15.36-.27.07-.1.11-.23.15-.34.02-.05.03-.11.02-.17,0-.14-.05-.27-.09-.4-.03-.09-.05-.18-.04-.27,0,0,0,0,0,0,0-.04,0-.08-.01-.12-.02.02-.04.04-.07.06-.11.05-.23.07-.35.11-.06.02-.14.02-.19.05-.14.07-.28.14-.39.25Z"></path><path class="cls-1" d="M65.78,33.26c-.17.09-.32.18-.43.33-.06.09-.13.18-.18.28-.03.06-.07.12-.08.19-.01.15,0,.3,0,.45,0,.06.02.13.05.18.06.11.11.21.06.33,0,.02,0,.04,0,.07.05-.04.08-.07.12-.09.03-.02.07-.05.09-.04.09.04.18.03.27.04.03,0,.07.03.1.03.13,0,.25-.04.38-.04.24,0,.45-.09.62-.23.14-.11.24-.27.35-.41.05-.06.08-.14.1-.22.05-.19.05-.38.04-.57,0-.13,0-.26.05-.38,0,0,0,0,0,0,.01-.05.04-.12.03-.17-.03.02-.07.04-.11.05-.17.03-.35.01-.53.01-.1,0-.2-.03-.29,0-.22.05-.44.09-.65.19Z"></path><path class="cls-1" d="M66.56,31.09c-.13.07-.24.13-.32.25-.05.07-.1.14-.14.21-.03.04-.06.09-.06.14,0,.11,0,.23,0,.34,0,.05.01.1.04.14.05.08.08.16.05.25,0,.01,0,.03,0,.05.04-.03.06-.05.09-.07.02-.01.06-.04.07-.03.07.03.14.02.21.03.03,0,.05.02.07.02.1,0,.19-.03.29-.03.18,0,.34-.07.47-.18.11-.09.19-.2.27-.31.04-.05.06-.11.08-.17.04-.14.04-.29.03-.43,0-.1,0-.2.04-.29,0,0,0,0,0,0,0-.04.03-.09.02-.13-.03.02-.05.03-.09.04-.13.03-.27.01-.4.01-.07,0-.15-.02-.22,0-.17.04-.34.07-.49.15Z"></path><path class="cls-7" d="M60.97,28.78c-.04.12-.07.24-.04.37.02.08.03.15.05.23.01.05.03.1.06.13.07.08.15.15.23.22.03.03.07.06.12.07.08.02.16.05.2.14,0,.01.02.02.04.04,0-.04,0-.07.01-.1,0-.02.01-.06.03-.07.06-.02.1-.07.15-.11.02-.01.05-.02.06-.03.06-.07.11-.14.17-.2.12-.11.18-.26.19-.41.01-.12-.01-.25-.03-.37,0-.05-.03-.11-.06-.16-.07-.12-.17-.21-.27-.3-.07-.06-.13-.13-.16-.21,0,0,0,0,0,0-.02-.03-.04-.07-.07-.1,0,.03-.01.06-.03.08-.07.1-.17.17-.26.26-.05.05-.11.08-.15.13-.09.13-.18.25-.23.41Z"></path><path class="cls-1" d="M60.68,26.36c-.1.08-.19.15-.24.27-.03.07-.06.14-.08.21-.02.04-.03.09-.03.14.01.1.03.2.06.3,0,.04.03.09.06.12.05.07.1.13.08.22,0,.01,0,.02,0,.05.03-.03.04-.05.07-.07.02-.02.04-.04.06-.04.06.02.12,0,.18,0,.02,0,.05.01.07,0,.08-.02.16-.05.25-.06.16-.02.28-.11.38-.22.08-.09.13-.21.18-.31.02-.05.04-.11.04-.16,0-.13-.02-.26-.05-.39-.02-.09-.03-.18-.01-.26,0,0,0,0,0,0,0-.04,0-.08,0-.12-.02.02-.04.04-.07.05-.11.04-.23.05-.35.06-.06,0-.13,0-.19.02-.14.06-.28.1-.41.2Z"></path><path class="cls-1" d="M54.97,27.03c-.12.15-.23.29-.26.47-.02.11-.04.22-.06.33,0,.07-.02.14,0,.21.05.14.11.28.18.42.03.06.07.11.12.15.1.08.19.15.19.29,0,.02.01.03.03.07.03-.05.05-.09.07-.13.02-.03.05-.08.07-.07.1,0,.18-.05.27-.07.03,0,.07,0,.1-.01.11-.06.22-.13.34-.18.23-.09.38-.26.48-.45.08-.16.12-.34.16-.52.02-.08.02-.16,0-.24-.03-.19-.11-.37-.2-.55-.06-.12-.11-.24-.1-.37,0,0,0,0,0,0,0-.05-.01-.12-.04-.17-.02.04-.05.07-.09.09-.14.1-.32.15-.49.22-.09.04-.19.05-.27.1-.19.13-.38.25-.53.43Z"></path><path class="cls-4" d="M53.14,25.19c-.12.15-.23.29-.26.47-.02.11-.04.22-.06.33,0,.07-.02.14,0,.21.05.14.11.28.18.42.03.06.07.11.12.15.1.08.19.15.19.29,0,.02.01.03.03.07.03-.05.05-.09.07-.13.02-.03.05-.08.07-.07.1,0,.18-.05.27-.07.03,0,.07,0,.1-.01.11-.06.22-.13.34-.18.23-.09.38-.26.48-.45.08-.16.12-.34.16-.52.02-.08.02-.16,0-.24-.03-.19-.11-.37-.2-.55-.06-.12-.11-.24-.1-.37,0,0,0,0,0,0,0-.05-.01-.12-.04-.17-.02.04-.05.07-.09.09-.14.1-.32.15-.49.22-.09.04-.19.05-.27.1-.19.13-.38.25-.53.43Z"></path><path class="cls-4" d="M55.12,33.6c-.13.11-.25.23-.31.39-.04.1-.07.19-.1.29-.02.06-.04.13-.03.19.02.14.06.27.1.41.02.06.05.11.09.16.08.08.15.17.13.29,0,.02,0,.03.01.07.04-.04.06-.08.08-.11.02-.02.06-.06.08-.06.09.02.17-.02.25-.02.03,0,.07.01.09,0,.11-.04.22-.09.34-.11.22-.05.38-.18.51-.34.1-.13.16-.29.23-.45.03-.07.04-.15.04-.22,0-.18-.04-.35-.1-.53-.04-.12-.06-.24-.04-.35,0,0,0,0,0,0,0-.05,0-.11,0-.16-.03.03-.06.05-.09.07-.15.07-.32.09-.48.13-.09.02-.18.02-.26.05-.19.09-.38.17-.55.31Z"></path><path class="cls-1" d="M49.81,35.55c-.1.15-.17.29-.18.46,0,.1-.01.21-.01.31,0,.06,0,.13.03.19.06.13.14.24.22.36.03.05.08.1.13.13.1.06.19.12.21.24,0,.02.02.03.03.06.02-.05.03-.09.05-.12.01-.03.03-.07.06-.08.09,0,.16-.06.24-.09.03-.01.07,0,.09-.02.1-.07.18-.15.29-.2.2-.11.31-.28.39-.47.06-.15.07-.33.09-.49,0-.07,0-.15-.02-.22-.05-.17-.14-.33-.25-.48-.07-.1-.13-.21-.14-.33,0,0,0,0,0,0-.02-.05-.03-.11-.06-.15-.02.04-.04.07-.07.09-.12.11-.28.17-.42.25-.08.04-.17.07-.23.12-.15.14-.31.27-.43.45Z"></path><path class="cls-1" d="M52.52,35.98c-.07.11-.12.21-.13.33,0,.07,0,.15,0,.22,0,.05,0,.1.02.13.05.09.1.18.16.26.02.03.06.07.09.09.07.04.14.08.15.17,0,.01.01.02.02.04.01-.04.02-.06.04-.09.01-.02.02-.05.04-.05.07,0,.11-.04.17-.07.02,0,.05,0,.07-.02.07-.05.13-.11.21-.15.14-.08.22-.2.28-.34.04-.11.05-.23.06-.35,0-.05,0-.11-.02-.16-.04-.12-.1-.23-.18-.34-.05-.07-.09-.15-.1-.23,0,0,0,0,0,0-.01-.03-.02-.08-.04-.11-.01.03-.03.05-.05.07-.09.08-.2.12-.3.18-.06.03-.12.05-.17.09-.11.1-.22.2-.31.32Z"></path><path class="cls-1" d="M50.63,38.12c-.12.13-.23.25-.27.42-.03.1-.05.2-.07.3-.01.06-.03.13-.01.19.04.13.09.27.14.4.02.05.06.11.1.15.09.08.16.15.16.27,0,.02,0,.03.02.06.03-.05.05-.08.07-.11.02-.03.05-.07.07-.06.09.01.17-.03.25-.05.03,0,.07,0,.09,0,.11-.05.21-.11.32-.15.22-.07.36-.22.47-.39.09-.14.13-.31.18-.47.02-.07.03-.15.02-.22-.02-.18-.08-.35-.15-.52-.05-.11-.08-.23-.07-.35,0,0,0,0,0,0,0-.05,0-.11-.03-.16-.02.03-.05.06-.08.08-.14.08-.31.12-.46.17-.08.03-.18.03-.25.08-.18.11-.36.21-.51.37Z"></path><path class="cls-1" d="M57.69,33.08c0,.17.01.33.1.49.05.09.1.18.16.27.03.05.07.11.12.15.12.07.25.14.38.2.05.02.12.04.18.04.12,0,.23,0,.31.09.01.01.03.02.06.03-.01-.06-.02-.09-.02-.13,0-.03-.01-.08,0-.09.07-.05.1-.13.15-.2.02-.02.05-.04.07-.07.05-.11.08-.22.13-.32.11-.19.11-.4.07-.6-.03-.16-.12-.31-.19-.46-.03-.07-.08-.13-.14-.18-.14-.12-.3-.2-.47-.28-.12-.05-.22-.11-.3-.21,0,0,0,0,0,0-.04-.03-.08-.08-.13-.1,0,.04,0,.08,0,.11-.04.15-.14.29-.22.43-.04.08-.11.15-.13.23-.05.2-.12.39-.12.61Z"></path><path class="cls-1" d="M47.73,28.1c-.16.23-.29.45-.32.73-.02.16-.03.33-.04.49,0,.1,0,.21.03.3.09.2.21.4.32.59.05.08.12.16.2.21.16.1.3.2.32.4,0,.02.02.05.05.1.04-.08.06-.14.09-.2.03-.04.06-.12.09-.12.15,0,.26-.09.38-.13.05-.02.11,0,.15-.03.16-.1.31-.23.47-.31.33-.16.52-.43.65-.73.1-.24.13-.52.17-.78.02-.12,0-.25-.02-.36-.07-.28-.21-.53-.36-.78-.1-.17-.19-.35-.2-.53,0,0,0,0,0-.01-.02-.08-.04-.18-.08-.24-.03.06-.06.11-.11.15-.2.16-.45.26-.69.38-.13.07-.28.1-.38.18-.26.22-.52.42-.72.7Z"></path><path class="cls-7" d="M51.54,29.53c-.1.26-.17.51-.12.78.03.16.05.33.09.49.02.1.05.21.11.28.14.17.3.34.47.49.07.07.15.13.24.15.18.06.34.12.42.3,0,.02.03.04.07.08.01-.09.02-.15.03-.21.01-.05.03-.13.06-.14.14-.04.22-.15.34-.22.04-.03.1-.03.14-.07.13-.14.24-.29.38-.41.27-.23.39-.54.44-.87.04-.26,0-.53-.04-.8-.01-.12-.06-.24-.12-.34-.14-.26-.34-.46-.55-.67-.15-.14-.27-.29-.34-.46,0,0,0,0,0-.01-.04-.07-.08-.16-.14-.22-.01.06-.03.12-.07.17-.15.21-.37.36-.57.54-.11.09-.24.16-.32.27-.19.27-.4.53-.51.85Z"></path><path class="cls-7" d="M46.78,24.11c-.16.23-.29.45-.32.73-.02.16-.03.33-.04.49,0,.1,0,.21.03.3.09.2.21.4.32.59.05.08.12.16.2.21.16.1.3.2.32.4,0,.02.02.05.05.1.04-.08.06-.14.09-.2.03-.04.06-.12.09-.12.15,0,.26-.09.38-.13.05-.02.11,0,.15-.03.16-.1.31-.23.47-.31.33-.16.52-.43.65-.73.1-.24.13-.52.17-.78.02-.12,0-.25-.02-.36-.07-.28-.21-.53-.36-.78-.1-.17-.19-.35-.2-.53,0,0,0,0,0-.01-.02-.08-.04-.18-.08-.24-.03.06-.06.11-.11.15-.2.16-.45.26-.69.38-.13.07-.28.1-.38.18-.26.22-.52.42-.72.7Z"></path><path class="cls-6" d="M50.53,24.46c-.1.15-.19.29-.2.46,0,.1-.02.21-.02.31,0,.06,0,.14.02.19.06.13.13.25.2.38.03.05.07.1.12.13.1.06.19.13.21.25,0,.02.01.03.03.06.02-.05.04-.09.06-.12.02-.03.04-.07.06-.08.09,0,.16-.06.24-.08.03-.01.07,0,.09-.02.1-.06.19-.14.3-.2.21-.1.33-.27.41-.46.07-.15.08-.33.11-.5.01-.07,0-.16-.01-.23-.04-.18-.13-.34-.23-.5-.07-.11-.12-.22-.13-.34,0,0,0,0,0,0-.01-.05-.02-.11-.05-.15-.02.04-.04.07-.07.09-.13.1-.29.16-.44.24-.08.04-.18.06-.24.12-.16.14-.33.26-.46.44Z"></path><path class="cls-1" d="M51.13,27.01c-.1.11-.18.22-.21.36-.02.08-.04.17-.05.25,0,.05-.02.11,0,.16.04.11.08.22.13.33.02.04.05.09.09.12.08.06.14.12.15.23,0,.01,0,.03.02.05.02-.04.04-.07.06-.1.02-.02.04-.06.06-.06.08,0,.14-.03.21-.05.03,0,.06,0,.08,0,.09-.04.17-.1.27-.13.18-.06.3-.19.38-.34.07-.12.1-.26.14-.4.02-.06.02-.13.01-.19-.02-.15-.08-.29-.14-.43-.04-.09-.08-.19-.07-.29,0,0,0,0,0,0,0-.04,0-.09-.03-.13-.02.03-.04.05-.07.07-.11.07-.25.11-.38.16-.07.03-.15.03-.21.07-.15.1-.3.19-.42.32Z"></path><path class="cls-1" d="M65.74,43.03c-.12-.18-.24-.33-.43-.42-.11-.06-.22-.12-.34-.17-.07-.03-.15-.07-.22-.07-.17,0-.34.02-.51.05-.07,0-.15.03-.21.07-.12.08-.23.14-.38.1-.02,0-.04,0-.08,0,.05.05.08.08.11.12.02.03.07.07.06.1-.04.1,0,.2-.02.3,0,.04-.03.07-.02.11.02.14.07.27.08.41.02.26.16.47.33.65.14.14.33.24.51.34.08.05.17.08.26.09.22.03.44.01.66-.02.15-.02.3-.03.44.02,0,0,0,0,0,0,.06,0,.14.03.2.02-.03-.03-.06-.07-.07-.12-.06-.18-.05-.38-.07-.57-.01-.1.01-.22-.02-.31-.08-.23-.15-.47-.29-.68Z"></path><path class="cls-1" d="M64.24,44.93c-.1-.15-.2-.28-.36-.36-.1-.05-.19-.1-.29-.14-.06-.03-.13-.06-.19-.06-.15,0-.29.02-.44.04-.06,0-.13.03-.17.06-.1.07-.19.12-.32.09-.02,0-.03,0-.07,0,.04.04.07.07.1.1.02.03.06.06.05.08-.03.08,0,.17-.01.25,0,.03-.02.06-.02.09.02.12.06.23.07.34.02.22.13.4.28.55.12.12.28.2.43.29.07.04.15.06.22.08.19.03.37.01.56-.02.13-.02.26-.02.37.01,0,0,0,0,0,0,.05,0,.12.02.17.01-.03-.03-.05-.06-.06-.1-.05-.15-.05-.32-.06-.48,0-.09,0-.18-.02-.26-.07-.2-.12-.4-.25-.58Z"></path><path class="cls-1" d="M57.54,35.4c-.04.12-.07.23-.05.35.01.07.03.14.04.21.01.04.02.09.05.13.06.08.14.15.21.22.03.03.07.06.11.07.08.02.15.05.19.13,0,.01.02.02.03.04,0-.04,0-.07.01-.09,0-.02.01-.06.03-.06.06-.02.1-.07.15-.1.02-.01.05-.02.06-.03.06-.06.1-.13.17-.19.12-.1.17-.24.19-.39.01-.12,0-.24-.02-.35,0-.05-.03-.11-.05-.15-.06-.11-.15-.2-.25-.29-.07-.06-.12-.13-.15-.2,0,0,0,0,0,0-.02-.03-.04-.07-.06-.09,0,.03-.01.05-.03.08-.07.09-.16.16-.25.24-.05.04-.11.07-.14.12-.08.12-.17.24-.22.38Z"></path><path class="cls-1" d="M59.86,35.01c-.08.09-.15.18-.18.3-.02.07-.03.14-.04.21,0,.04-.02.09,0,.13.03.09.07.19.11.28.02.04.04.08.08.1.06.05.12.1.12.19,0,.01,0,.02.02.05.02-.03.03-.06.05-.08.01-.02.03-.05.05-.05.06,0,.12-.03.18-.04.02,0,.05,0,.07,0,.08-.04.15-.08.22-.11.15-.05.25-.16.33-.29.06-.1.09-.22.12-.34.01-.05.02-.11.01-.16-.02-.13-.06-.25-.12-.36-.04-.08-.07-.16-.06-.24,0,0,0,0,0,0,0-.04,0-.08-.02-.11-.02.02-.03.04-.06.06-.1.06-.21.09-.32.13-.06.02-.13.03-.18.06-.12.08-.25.16-.35.27Z"></path><path class="cls-1" d="M52.57,32.99c-.13.12-.24.24-.29.4-.03.1-.06.19-.09.29-.02.06-.03.13-.02.19.03.13.07.27.12.4.02.05.05.11.09.15.08.08.15.16.14.28,0,.02,0,.03.02.06.03-.05.05-.08.08-.11.02-.02.05-.06.07-.06.09.02.17-.02.25-.03.03,0,.07,0,.09,0,.11-.04.21-.1.33-.13.22-.05.37-.19.49-.36.09-.13.15-.3.21-.45.03-.07.04-.15.04-.22,0-.18-.05-.35-.11-.52-.04-.12-.07-.23-.05-.35,0,0,0,0,0,0,0-.05,0-.11-.02-.16-.02.03-.05.06-.09.07-.14.07-.31.1-.47.14-.08.02-.18.02-.26.06-.18.1-.37.18-.53.33Z"></path><path class="cls-1" d="M52.08,39.98c-.12.08-.22.16-.28.28-.04.07-.07.15-.11.22-.02.05-.04.1-.04.15,0,.11.02.22.04.33,0,.05.03.09.05.13.06.07.1.14.08.24,0,.01,0,.03,0,.05.03-.03.05-.06.08-.08.02-.02.05-.04.07-.04.07.02.14,0,.2,0,.03,0,.05.02.07.01.09-.02.18-.05.28-.06.18-.02.32-.11.43-.23.09-.1.15-.22.22-.33.03-.05.05-.11.06-.17.02-.14,0-.28-.03-.42-.02-.1-.03-.19,0-.28,0,0,0,0,0,0,0-.04.01-.09,0-.13-.02.02-.05.04-.08.05-.12.04-.26.04-.39.06-.07,0-.15,0-.21.02-.16.06-.32.1-.46.2Z"></path><path class="cls-1" d="M44.68,23.2c-.08.16-.14.31-.12.49,0,.1.01.21.03.31,0,.06.02.13.05.19.08.12.17.23.27.34.04.05.09.09.15.11.11.05.21.1.25.22,0,.02.02.03.04.06.01-.06.02-.1.03-.13.01-.03.03-.08.05-.08.09-.02.15-.08.23-.12.03-.02.07-.02.09-.03.09-.08.17-.17.26-.24.19-.13.28-.32.33-.52.04-.16.03-.34.02-.51,0-.08-.02-.15-.05-.22-.07-.17-.19-.31-.31-.45-.08-.1-.16-.2-.19-.31,0,0,0,0,0,0-.02-.05-.04-.11-.08-.14-.01.04-.03.07-.05.1-.11.12-.26.21-.39.31-.07.05-.16.09-.22.15-.14.16-.28.31-.38.51Z"></path><path class="cls-4" d="M42.93,41.36c-.13.16-.23.32-.27.52-.02.12-.04.24-.05.36,0,.07-.02.16,0,.22.06.15.13.3.21.45.03.06.08.12.14.16.11.08.21.16.22.3,0,.02.02.04.03.07.03-.06.05-.1.07-.14.02-.03.05-.08.07-.08.11,0,.19-.06.29-.08.04,0,.08,0,.11-.02.12-.07.23-.15.36-.21.25-.1.4-.29.51-.51.09-.17.12-.37.16-.57.02-.09.02-.18,0-.27-.04-.21-.13-.4-.23-.59-.07-.13-.12-.26-.13-.4,0,0,0,0,0,0-.01-.06-.02-.13-.05-.18-.02.04-.05.08-.09.1-.15.11-.34.17-.52.25-.1.04-.21.06-.29.12-.2.15-.4.28-.56.48Z"></path><path class="cls-4" d="M49.15,40.78c-.16.06-.3.12-.41.24-.07.07-.13.14-.19.22-.04.05-.08.1-.09.15-.03.13-.04.26-.06.39,0,.05,0,.12.02.17.04.1.07.2.01.3,0,.01,0,.03-.01.06.05-.03.08-.05.11-.06.03-.01.07-.04.09-.03.07.05.15.04.23.07.03,0,.05.03.08.03.11,0,.22,0,.33.01.21.03.4-.03.57-.13.13-.08.25-.2.36-.31.05-.05.09-.11.12-.18.07-.16.09-.32.1-.49.01-.12.03-.23.09-.32,0,0,0,0,0,0,.02-.04.04-.1.05-.14-.03.02-.07.03-.11.03-.15.01-.31-.03-.46-.05-.08-.01-.17-.05-.25-.04-.2.02-.39.02-.59.09Z"></path><path class="cls-1" d="M42.42,38.35c-.08.12-.14.24-.14.38,0,.08,0,.17,0,.25,0,.05,0,.11.02.15.05.1.12.2.18.29.03.04.06.08.11.1.08.04.16.09.18.19,0,.01.01.02.03.05.02-.04.03-.07.04-.1.01-.02.03-.06.04-.06.07,0,.13-.06.19-.08.02,0,.05,0,.07-.02.08-.06.15-.13.23-.17.16-.09.25-.24.31-.4.05-.13.05-.27.06-.4,0-.06,0-.12-.02-.18-.04-.14-.12-.26-.21-.38-.06-.08-.11-.17-.12-.26,0,0,0,0,0,0-.01-.04-.02-.09-.05-.12-.01.03-.03.06-.05.08-.1.09-.22.15-.34.22-.06.04-.14.06-.19.11-.12.12-.25.23-.34.38Z"></path><path class="cls-1" d="M30.41,40.55c.09.15.19.28.34.37.09.05.18.1.28.15.06.03.12.06.18.06.14,0,.29-.01.43-.03.06,0,.12-.02.17-.05.1-.06.19-.11.32-.08.02,0,.03,0,.07,0-.04-.04-.07-.07-.09-.1-.02-.03-.05-.06-.05-.08.03-.08.01-.17.02-.25,0-.03.02-.06.02-.09-.02-.11-.05-.23-.06-.34,0-.22-.12-.4-.26-.55-.12-.12-.27-.21-.41-.3-.06-.04-.14-.07-.22-.08-.18-.03-.37-.02-.55,0-.13.01-.25.02-.36-.02,0,0,0,0,0,0-.05,0-.11-.03-.16-.02.03.03.05.06.06.1.04.15.03.32.04.48,0,.09-.02.18,0,.26.06.2.11.4.22.58Z"></path><path class="cls-1" d="M33.25,41.19c.09.12.17.23.31.29.08.04.16.08.24.11.05.02.11.04.16.04.12,0,.24-.02.36-.04.05,0,.1-.03.14-.05.08-.06.16-.1.26-.08.01,0,.03,0,.06,0-.04-.03-.06-.05-.08-.08-.02-.02-.05-.05-.04-.07.02-.07,0-.14,0-.21,0-.03.02-.05.01-.08-.02-.1-.06-.19-.07-.28-.02-.19-.12-.33-.25-.45-.1-.09-.24-.16-.36-.23-.06-.03-.12-.05-.19-.06-.16-.02-.31,0-.46.03-.11.02-.21.03-.31,0,0,0,0,0,0,0-.04,0-.1-.02-.14,0,.02.02.04.05.05.08.04.13.05.27.06.4,0,.07,0,.15.02.22.06.16.11.33.22.47Z"></path><path class="cls-7" d="M22.91,47.78c.2-.09.37-.19.5-.37.07-.1.15-.21.22-.31.04-.07.09-.14.1-.21.02-.17.02-.34.01-.51,0-.07-.02-.15-.05-.21-.07-.12-.12-.24-.06-.38,0-.02,0-.04,0-.08-.06.04-.09.07-.14.1-.03.02-.09.06-.11.05-.1-.05-.21-.03-.31-.05-.04,0-.08-.04-.11-.03-.15,0-.29.04-.44.03-.28-.01-.52.1-.72.25-.16.12-.29.3-.42.46-.06.07-.1.16-.13.25-.06.21-.07.43-.06.66,0,.15,0,.3-.07.43,0,0,0,0,0,0-.02.06-.04.13-.04.19.04-.03.08-.05.13-.06.2-.04.4,0,.61,0,.11,0,.22.04.33.02.25-.05.51-.09.75-.2Z"></path><path class="cls-7" d="M33.94,43.74c.08.08.16.15.28.19.07.02.13.04.2.06.04,0,.09.02.13.01.09-.02.18-.05.28-.08.04-.01.08-.03.1-.06.05-.05.11-.1.19-.09.01,0,.02,0,.04-.01-.03-.02-.05-.04-.07-.05-.02-.01-.04-.03-.04-.05.01-.06-.02-.11-.02-.16,0-.02,0-.04,0-.06-.03-.07-.07-.14-.09-.21-.04-.14-.13-.24-.25-.32-.09-.06-.21-.1-.31-.13-.05-.02-.1-.02-.15-.02-.12,0-.24.04-.36.08-.08.03-.16.05-.24.04,0,0,0,0,0,0-.03,0-.08,0-.11.01.02.02.04.03.05.06.05.09.07.2.1.3.02.06.02.12.04.17.07.12.13.24.23.34Z"></path><path class="cls-1" d="M25.23,46.01c.12-.05.22-.1.29-.2.04-.06.09-.11.13-.18.03-.04.05-.08.06-.12.01-.1.02-.2.02-.29,0-.04,0-.09-.02-.12-.04-.07-.06-.14-.03-.22,0-.01,0-.02,0-.05-.03.02-.06.04-.08.05-.02.01-.05.03-.06.02-.06-.03-.12-.02-.18-.04-.02,0-.04-.02-.06-.02-.08,0-.17.02-.25,0-.16-.01-.3.04-.42.13-.1.07-.17.16-.25.25-.03.04-.06.09-.08.14-.04.12-.05.25-.05.37,0,.09-.01.17-.05.24,0,0,0,0,0,0-.01.03-.03.07-.03.11.02-.01.05-.03.08-.03.11-.02.23,0,.35.01.06,0,.13.03.19.02.15-.02.29-.04.44-.1Z"></path><path class="cls-4" d="M18.63,48.86c.15-.05.28-.1.38-.21.06-.07.12-.13.18-.2.03-.04.07-.09.09-.14.03-.12.04-.24.06-.36,0-.05,0-.11-.02-.15-.04-.09-.06-.18,0-.27,0-.01,0-.03.01-.06-.04.02-.07.04-.1.06-.03.01-.07.03-.08.02-.06-.04-.14-.04-.21-.06-.03,0-.05-.03-.07-.03-.1,0-.21,0-.31-.02-.19-.03-.37.02-.52.11-.12.07-.23.18-.33.28-.05.04-.08.1-.11.16-.06.14-.09.3-.1.45-.01.11-.03.21-.09.29,0,0,0,0,0,0-.02.04-.04.09-.05.13.03-.02.06-.03.1-.03.14,0,.28.03.42.05.08.01.15.05.23.04.18-.01.36-.02.54-.08Z"></path><path class="cls-4" d="M27.08,46.39c.05-.15.08-.29.05-.43-.02-.09-.03-.18-.06-.26-.01-.05-.03-.11-.06-.15-.08-.09-.17-.17-.26-.26-.04-.03-.08-.06-.13-.08-.1-.03-.18-.06-.23-.15,0-.01-.02-.02-.04-.04,0,.05,0,.08-.01.12,0,.03-.01.07-.03.08-.07.03-.12.09-.17.13-.02.02-.05.02-.07.04-.07.08-.12.17-.19.24-.14.14-.2.31-.21.49-.01.14.02.29.04.44,0,.06.03.13.07.18.08.14.19.24.31.35.08.07.15.15.19.24,0,0,0,0,0,0,.02.04.05.09.08.11,0-.03.02-.07.03-.1.08-.12.19-.21.29-.31.05-.06.13-.1.16-.16.1-.16.2-.3.26-.49Z"></path><path class="cls-1" d="M19.06,43.74c.14.06.27.11.43.1.09,0,.18-.01.27-.02.06,0,.12-.01.16-.04.1-.07.2-.14.3-.22.04-.03.08-.07.1-.12.04-.09.08-.17.19-.2.01,0,.02-.02.05-.03-.05-.01-.08-.02-.12-.03-.03,0-.07-.02-.07-.04-.02-.07-.07-.12-.11-.19-.01-.02-.01-.06-.03-.07-.07-.07-.15-.14-.21-.22-.12-.15-.28-.23-.46-.27-.14-.03-.3-.02-.44-.02-.07,0-.13.02-.2.04-.15.06-.27.16-.4.26-.08.07-.17.13-.27.15,0,0,0,0,0,0-.04.02-.09.03-.13.06.03,0,.06.02.09.05.11.09.18.21.27.32.05.06.08.14.14.18.14.11.27.23.45.31Z"></path><path class="cls-1" d="M20.81,39.14c.1.12.2.22.34.27.08.03.17.07.26.09.05.02.11.04.17.03.12-.02.24-.04.36-.07.05-.01.1-.04.14-.07.08-.06.15-.12.26-.1.01,0,.03,0,.06-.01-.04-.03-.07-.05-.09-.07-.02-.02-.05-.05-.05-.07.02-.07,0-.14-.01-.21,0-.03.01-.06,0-.08-.03-.1-.07-.19-.09-.28-.04-.19-.15-.33-.29-.44-.11-.09-.26-.14-.39-.2-.06-.03-.13-.04-.2-.04-.16,0-.32.03-.47.07-.11.03-.21.04-.31.02,0,0,0,0,0,0-.05,0-.1,0-.14,0,.03.02.05.05.06.08.06.12.07.27.1.4.02.07.01.15.04.22.08.16.14.32.27.47Z"></path><path class="cls-1" d="M46.81,21.61c-.08.1-.14.2-.15.33,0,.07-.02.15-.02.22,0,.05,0,.1.01.14.04.09.09.18.14.27.02.04.05.07.09.1.07.05.13.09.14.18,0,.01.01.02.02.04.02-.04.03-.06.04-.09.01-.02.03-.05.04-.05.07,0,.12-.04.18-.06.02,0,.05,0,.07-.01.07-.04.14-.1.22-.14.15-.07.24-.19.3-.33.05-.11.06-.23.08-.35,0-.05,0-.11,0-.16-.03-.13-.09-.24-.16-.36-.05-.08-.08-.16-.09-.24,0,0,0,0,0,0,0-.04-.02-.08-.03-.11-.01.03-.03.05-.05.07-.09.07-.21.11-.32.17-.06.03-.13.04-.18.08-.12.1-.24.18-.33.31Z"></path><path class="cls-1" d="M49.74,22.33c-.09.12-.16.23-.17.37,0,.08-.02.17-.02.25,0,.05,0,.11.01.15.05.11.1.21.16.31.02.04.06.08.1.11.08.05.15.11.16.21,0,.01.01.02.02.05.02-.04.03-.07.05-.1.01-.02.03-.06.05-.06.07,0,.13-.04.2-.06.02,0,.06,0,.08-.01.08-.05.16-.11.25-.15.17-.08.27-.21.34-.37.06-.12.07-.26.1-.4.01-.06,0-.13,0-.18-.03-.14-.1-.27-.18-.4-.05-.09-.09-.18-.1-.27,0,0,0,0,0,0,0-.04-.02-.09-.04-.13-.01.03-.03.05-.06.07-.1.08-.24.13-.36.19-.07.03-.14.05-.2.09-.13.11-.27.21-.38.35Z"></path><path class="cls-1" d="M55.6,24c-.07.1-.13.19-.14.31,0,.07-.02.14-.02.21,0,.04,0,.09.01.13.04.09.08.17.13.26.02.03.05.07.08.09.07.04.12.09.14.17,0,.01,0,.02.02.04.02-.04.03-.06.04-.08.01-.02.03-.05.04-.05.06,0,.11-.04.17-.05.02,0,.05,0,.06-.01.07-.04.13-.09.2-.13.14-.07.23-.18.28-.31.05-.1.06-.22.08-.33,0-.05,0-.1,0-.15-.03-.12-.08-.23-.15-.34-.04-.07-.08-.15-.08-.23,0,0,0,0,0,0,0-.03-.01-.08-.03-.1-.01.02-.03.05-.05.06-.09.07-.2.11-.3.16-.05.03-.12.04-.17.08-.11.09-.23.17-.31.29Z"></path><path class="cls-1" d="M52.74,23.1c-.08.1-.14.2-.15.33,0,.07-.02.15-.02.22,0,.05,0,.1.01.14.04.09.09.18.14.27.02.04.05.07.09.1.07.05.13.09.14.18,0,.01.01.02.02.04.02-.04.03-.06.04-.09.01-.02.03-.05.04-.05.07,0,.12-.04.18-.06.02,0,.05,0,.07-.01.07-.04.14-.1.22-.14.15-.07.24-.19.3-.33.05-.11.06-.24.09-.36,0-.05,0-.11,0-.16-.03-.13-.09-.24-.16-.36-.05-.08-.08-.16-.09-.24,0,0,0,0,0,0,0-.04-.02-.08-.03-.11-.01.03-.03.05-.05.07-.09.07-.21.11-.32.17-.06.03-.13.04-.18.08-.12.1-.24.19-.33.31Z"></path><path class="cls-4" d="M43.69,27.1c-.16.23-.29.45-.32.73-.02.16-.03.33-.04.49,0,.1,0,.21.03.3.09.2.21.4.32.59.05.08.12.16.2.21.16.1.3.2.32.4,0,.02.02.05.05.1.04-.08.06-.14.09-.2.03-.04.06-.12.09-.12.15,0,.26-.09.38-.13.05-.02.11,0,.15-.03.16-.1.31-.23.47-.31.33-.16.52-.43.65-.73.1-.24.13-.52.17-.78.02-.12,0-.25-.02-.36-.07-.28-.21-.53-.36-.78-.1-.17-.19-.35-.2-.53,0,0,0,0,0-.01-.02-.08-.04-.18-.08-.24-.03.06-.06.11-.11.15-.2.16-.45.26-.69.38-.13.07-.28.1-.38.18-.26.22-.52.42-.72.7Z"></path><path class="cls-6" d="M37.41,27.67c-.05.28-.08.53.02.79.06.16.11.31.17.46.04.09.08.2.16.26.17.15.36.28.55.41.08.05.17.1.27.11.19.03.36.06.46.23.01.02.04.03.09.07,0-.09,0-.15,0-.21,0-.05,0-.13.03-.15.13-.06.2-.19.29-.28.04-.03.1-.05.12-.09.1-.15.18-.33.3-.47.23-.27.29-.6.28-.93,0-.26-.1-.52-.18-.78-.03-.11-.1-.23-.17-.32-.18-.23-.42-.4-.66-.57-.17-.11-.32-.24-.41-.4,0,0,0,0,0,0-.05-.06-.11-.15-.18-.19,0,.06-.01.12-.04.18-.11.23-.3.42-.47.62-.09.11-.21.2-.27.32-.14.3-.3.59-.36.93Z"></path><path class="cls-4" d="M33.58,28.17c-.07.24-.11.47-.05.71.04.14.07.29.12.43.03.09.06.18.12.25.14.15.29.28.45.41.07.05.15.1.23.12.16.04.31.09.39.24.01.02.03.03.07.07,0-.08,0-.14.02-.19,0-.04.02-.12.04-.13.12-.05.19-.15.28-.22.04-.03.09-.04.12-.07.11-.13.19-.28.31-.39.23-.23.31-.51.33-.8.01-.23-.05-.47-.09-.71-.02-.1-.07-.21-.13-.3-.14-.22-.34-.39-.54-.56-.14-.11-.26-.24-.33-.39,0,0,0,0,0,0-.04-.06-.08-.14-.14-.18,0,.06-.02.11-.05.16-.12.19-.31.35-.47.52-.09.09-.21.16-.27.26-.15.25-.31.5-.4.79Z"></path><path class="cls-1" d="M35.45,24.82c-.07.2-.12.39-.08.6.02.12.05.25.08.37.02.07.04.16.09.21.11.13.24.25.36.37.05.05.12.09.19.11.14.04.26.09.32.22,0,.02.03.03.06.06,0-.07.01-.12.02-.16,0-.04.02-.1.04-.11.11-.03.17-.12.25-.18.03-.02.08-.03.1-.05.1-.11.17-.23.28-.32.2-.18.29-.42.32-.67.02-.2-.02-.4-.04-.61-.01-.09-.05-.18-.09-.26-.11-.19-.27-.35-.43-.5-.11-.1-.21-.21-.26-.35,0,0,0,0,0,0-.03-.05-.07-.12-.11-.16,0,.05-.02.09-.05.13-.11.16-.28.28-.42.42-.08.07-.18.13-.24.21-.14.21-.29.41-.37.66Z"></path><path class="cls-1" d="M29.72,28.99c-.07.2-.12.39-.08.6.02.12.05.25.08.37.02.07.04.16.09.21.11.13.24.25.36.37.05.05.12.09.19.11.14.04.26.09.32.22,0,.02.03.03.06.06,0-.07.01-.12.02-.16,0-.04.02-.1.04-.11.11-.03.17-.12.25-.18.03-.02.08-.03.1-.05.1-.11.17-.23.28-.32.2-.18.29-.42.32-.67.02-.2-.02-.4-.04-.61-.01-.09-.05-.18-.09-.26-.11-.19-.27-.35-.43-.5-.11-.1-.21-.21-.26-.35,0,0,0,0,0,0-.03-.05-.07-.12-.11-.16,0,.05-.02.09-.05.13-.11.16-.28.28-.42.42-.08.07-.18.13-.24.21-.14.21-.29.41-.37.66Z"></path><path class="cls-1" d="M31.49,26.68c-.03.16-.05.3,0,.45.03.09.06.18.1.27.02.05.05.11.09.15.1.09.2.16.31.24.04.03.1.06.15.07.11.02.2.04.26.13,0,.01.02.02.05.04,0-.05,0-.09,0-.12,0-.03,0-.08.02-.08.08-.04.11-.11.17-.16.02-.02.06-.03.07-.05.06-.09.11-.19.17-.27.13-.16.17-.34.16-.53,0-.15-.06-.3-.1-.45-.02-.07-.05-.13-.1-.18-.1-.13-.24-.23-.38-.33-.1-.06-.18-.14-.23-.23,0,0,0,0,0,0-.03-.04-.06-.08-.1-.11,0,.04,0,.07-.02.1-.07.13-.18.24-.27.35-.05.06-.12.11-.16.18-.08.17-.17.33-.21.53Z"></path><path class="cls-4" d="M26.41,38.88c.13.23.27.44.5.58.14.08.27.17.41.24.09.05.18.1.28.1.22.01.44,0,.66-.01.09,0,.19-.03.27-.07.15-.09.3-.16.49-.1.02,0,.05,0,.11,0-.06-.07-.1-.11-.13-.16-.03-.04-.08-.1-.06-.13.06-.12.03-.25.05-.37,0-.05.04-.09.04-.14-.02-.17-.07-.35-.06-.52,0-.34-.15-.61-.36-.85-.17-.19-.4-.33-.61-.48-.09-.07-.21-.11-.32-.14-.28-.06-.56-.06-.84-.04-.19.01-.38,0-.55-.06,0,0,0,0-.01,0-.08-.02-.17-.05-.25-.04.04.05.07.1.08.16.06.23.03.49.04.73,0,.13-.04.27,0,.4.08.3.14.61.3.89Z"></path><path class="cls-4" d="M30.4,43.77c.19.19.38.35.64.43.15.05.31.09.46.13.1.02.2.05.3.03.21-.04.42-.11.63-.18.09-.03.18-.07.24-.14.13-.12.25-.23.44-.22.02,0,.05-.01.1-.03-.07-.05-.13-.08-.17-.12-.04-.03-.1-.08-.1-.11.02-.13-.04-.25-.05-.37,0-.05.01-.1,0-.14-.06-.16-.16-.32-.2-.49-.09-.32-.31-.55-.58-.73-.21-.14-.47-.22-.72-.31-.11-.04-.23-.05-.35-.05-.28,0-.55.09-.82.18-.18.06-.37.11-.55.08,0,0,0,0-.01,0-.08,0-.18,0-.25.03.05.04.09.08.12.13.12.21.16.46.23.7.04.13.04.27.1.38.16.27.3.55.53.79Z"></path><path class="cls-1" d="M24.9,34.99c.06.2.13.38.29.52.09.09.18.17.28.25.06.05.12.11.2.12.17.04.34.07.51.09.07,0,.15,0,.22-.01.13-.04.26-.07.39,0,.02,0,.04,0,.08.02-.03-.06-.06-.1-.08-.14-.02-.04-.04-.09-.03-.11.07-.09.07-.19.1-.28.01-.03.05-.06.05-.1.02-.14,0-.28.04-.41.06-.26-.01-.5-.14-.71-.1-.17-.25-.32-.39-.46-.06-.07-.14-.12-.23-.16-.2-.09-.42-.13-.64-.16-.15-.02-.3-.05-.42-.13,0,0,0,0,0,0-.06-.02-.12-.06-.18-.07.02.04.03.09.04.13,0,.19-.06.38-.09.57-.02.1-.07.2-.07.3.01.25,0,.49.08.74Z"></path><path class="cls-1" d="M25.62,31.98c0,.12.03.24.1.34.04.06.08.12.13.18.03.04.06.08.1.1.09.05.19.08.28.12.04.01.09.02.13.02.08,0,.16-.01.23.05,0,0,.02.01.04.02-.01-.04-.02-.07-.03-.09,0-.02-.01-.06,0-.07.05-.04.06-.1.1-.15.01-.02.04-.03.04-.05.03-.08.04-.16.08-.24.07-.14.06-.29.02-.43-.03-.11-.1-.22-.16-.32-.03-.05-.07-.09-.11-.12-.1-.08-.23-.13-.35-.17-.08-.03-.17-.07-.22-.13,0,0,0,0,0,0-.03-.02-.06-.05-.1-.06,0,.03,0,.05,0,.08-.02.11-.08.21-.13.32-.03.06-.07.11-.08.17-.03.14-.06.29-.05.44Z"></path><path class="cls-1" d="M23.18,39.18c.16.18.32.33.54.41.13.05.27.1.4.13.08.02.18.05.26.04.19-.03.38-.08.56-.13.08-.02.16-.06.22-.11.12-.1.23-.19.4-.17.02,0,.04,0,.09-.02-.06-.05-.11-.08-.15-.11-.03-.03-.09-.07-.08-.1.03-.12-.02-.22-.03-.33,0-.04.02-.09,0-.12-.05-.15-.12-.29-.16-.44-.06-.29-.25-.5-.48-.67-.18-.13-.41-.21-.62-.3-.09-.04-.2-.06-.31-.06-.25,0-.49.05-.73.12-.16.05-.33.08-.49.05,0,0,0,0-.01,0-.07,0-.16,0-.22.01.04.03.08.07.1.12.09.19.12.41.17.62.03.11.02.24.07.34.13.25.24.5.43.72Z"></path><path class="cls-4" d="M22.11,44.97c.21.11.42.2.66.2.14,0,.29,0,.43-.01.09,0,.19-.01.26-.05.17-.09.33-.21.48-.32.07-.05.13-.11.16-.18.07-.14.15-.26.31-.3.02,0,.04-.02.08-.05-.08-.02-.13-.03-.18-.05-.04-.02-.11-.04-.11-.07-.02-.12-.1-.2-.15-.3-.02-.04-.02-.09-.04-.12-.1-.12-.22-.23-.31-.36-.17-.25-.42-.39-.69-.46-.22-.06-.46-.06-.69-.07-.1,0-.21.02-.31.05-.24.08-.44.22-.64.37-.14.1-.28.19-.44.22,0,0,0,0,0,0-.07.02-.15.05-.2.09.05.02.1.04.14.08.16.15.27.35.39.53.07.1.11.22.2.3.21.19.41.39.67.52Z"></path><path class="cls-1" d="M19.59,46.99c.24-.03.46-.07.66-.21.12-.08.23-.16.34-.25.07-.05.15-.11.18-.19.08-.17.15-.35.21-.53.03-.07.04-.16.03-.24-.02-.15-.03-.3.08-.42.01-.02.02-.04.04-.08-.08.02-.13.04-.18.05-.04,0-.11.03-.13,0-.08-.09-.2-.11-.3-.16-.04-.02-.06-.06-.1-.07-.15-.04-.32-.06-.47-.12-.28-.11-.57-.09-.84,0-.22.07-.41.21-.61.33-.09.05-.16.13-.23.21-.15.2-.23.43-.31.66-.05.16-.12.31-.24.42,0,0,0,0,0,0-.04.06-.1.12-.11.18.05-.01.11-.02.16-.01.22.03.42.14.63.22.11.04.22.12.33.13.28.04.56.09.86.06Z"></path><path class="cls-7" d="M21.56,42.26c.22.11.42.19.66.19.14,0,.29,0,.43-.02.09,0,.19-.01.26-.06.17-.1.33-.21.48-.32.06-.05.13-.11.16-.18.07-.14.14-.26.31-.31.02,0,.04-.02.08-.05-.08-.02-.13-.03-.18-.05-.04-.02-.11-.04-.11-.06-.02-.12-.1-.2-.15-.3-.02-.04-.02-.09-.04-.12-.1-.12-.23-.23-.31-.36-.17-.25-.42-.38-.7-.46-.22-.06-.46-.05-.69-.06-.1,0-.21.02-.31.05-.24.08-.44.22-.64.37-.14.1-.28.19-.44.22,0,0,0,0,0,0-.07.02-.15.05-.2.09.05.02.1.04.14.08.16.15.27.35.4.52.07.1.11.22.2.29.21.19.41.38.68.52Z"></path><path class="cls-1" d="M23.42,36.36c.08.12.17.23.3.3.08.04.16.08.24.12.05.02.11.05.16.05.12,0,.24-.01.37-.03.05,0,.1-.02.15-.05.08-.05.16-.1.27-.07.01,0,.03,0,.06,0-.03-.03-.06-.06-.08-.08-.02-.02-.05-.05-.04-.07.03-.07,0-.14.01-.21,0-.03.02-.05.02-.08-.02-.1-.05-.19-.06-.29-.01-.19-.11-.34-.23-.46-.1-.1-.23-.17-.36-.24-.05-.03-.12-.05-.19-.06-.16-.03-.31-.01-.47,0-.11.01-.21.02-.31-.01,0,0,0,0,0,0-.04,0-.1-.02-.14-.01.02.02.04.05.05.08.04.13.04.27.05.41,0,.07,0,.15.01.22.06.17.1.33.2.49Z"></path><path class="cls-1" d="M22.92,34.16c.08.12.17.23.3.3.08.04.16.08.24.12.05.02.11.05.16.05.12,0,.24-.01.37-.03.05,0,.1-.02.15-.05.08-.05.16-.1.27-.07.01,0,.03,0,.06,0-.03-.03-.06-.06-.08-.08-.02-.02-.05-.05-.04-.07.03-.07,0-.14.01-.21,0-.03.02-.05.02-.08-.02-.1-.05-.19-.06-.29-.01-.19-.11-.34-.23-.46-.1-.1-.23-.17-.36-.24-.05-.03-.12-.05-.19-.06-.16-.03-.31-.01-.47,0-.11.01-.21.02-.31-.01,0,0,0,0,0,0-.04,0-.1-.02-.14-.01.02.02.04.05.05.08.04.13.04.27.05.41,0,.07,0,.15.01.22.06.17.1.33.2.49Z"></path><path class="cls-1" d="M40.92,25.63c-.08.2-.14.4-.11.61.02.13.04.26.06.38.02.08.03.16.08.22.11.14.23.27.36.39.05.05.12.1.19.12.14.05.26.1.32.24,0,.02.03.03.06.07.01-.07.02-.12.03-.17.01-.04.02-.1.05-.11.11-.03.18-.11.27-.17.03-.02.08-.02.11-.05.1-.1.19-.23.3-.32.22-.18.32-.42.36-.67.03-.2,0-.42-.02-.63,0-.09-.04-.19-.09-.27-.11-.2-.26-.37-.43-.53-.11-.11-.21-.23-.26-.37,0,0,0,0,0,0-.03-.06-.06-.13-.11-.17-.01.05-.03.09-.06.13-.12.16-.3.28-.45.41-.08.07-.19.12-.26.21-.15.21-.32.41-.42.66Z"></path><path class="cls-1" d="M39.03,23.7c-.03.16-.04.31.02.46.03.09.07.18.11.27.02.05.05.11.09.15.1.08.21.16.32.23.05.03.1.05.16.06.11.01.21.03.27.13,0,.01.02.02.05.04,0-.05,0-.09,0-.12,0-.03,0-.08.02-.08.07-.04.11-.11.17-.16.02-.02.05-.03.07-.05.06-.09.1-.19.17-.28.13-.16.16-.35.15-.54,0-.15-.07-.3-.11-.45-.02-.07-.06-.13-.1-.18-.11-.13-.25-.23-.39-.32-.1-.06-.19-.13-.24-.23,0,0,0,0,0,0-.03-.04-.06-.08-.1-.11,0,.04,0,.07-.02.1-.06.13-.17.25-.26.37-.05.06-.12.12-.15.19-.08.17-.16.34-.19.54Z"></path><path class="cls-1" d="M42.62,23.51c-.02.14-.03.26.02.39.03.08.06.15.09.23.02.05.04.1.08.13.09.07.18.13.27.2.04.03.09.05.13.05.09.01.18.03.23.11,0,.01.02.02.04.03,0-.04,0-.08,0-.11,0-.03,0-.06.02-.07.06-.03.09-.09.14-.14.02-.02.05-.03.06-.04.05-.08.09-.16.14-.23.11-.14.14-.3.13-.46,0-.13-.06-.26-.1-.38-.02-.06-.05-.11-.09-.16-.09-.11-.21-.19-.33-.27-.08-.05-.16-.11-.21-.19,0,0,0,0,0,0-.03-.03-.06-.07-.09-.09,0,.03,0,.06-.02.09-.05.11-.14.21-.22.31-.04.06-.1.1-.13.16-.07.15-.14.29-.17.46Z"></path></g><path class="cls-8" d="M46.43,68.39c-.24-.24-.42-.52-.65-.77-.24-.26-.49-.49-.74-.73-.56-.52-1.08-1.06-1.57-1.64-.25-.29-.55-.55-.79-.85,0,0,0,0,0,0-.51-.52-.81-1.15-.97-1.83-.02-.05-.05-.11-.07-.16-.19-.47-.33-.97-.42-1.47-.09-.51-.14-1.04-.29-1.53-.04-.13-.1-.25-.16-.37-.33,1.59-.92,3.07-1.64,4.54-.46.93-.75,1.94-1.35,2.76.9-.09,1.79-.1,2.67.19,0,0,0,0,.01,0,.44.11.88.27,1.32.42.21.06.42.13.63.19.36.11,2.61.66,3.69,1.13.13.06.26.12.4.17-.02-.02-.03-.03-.05-.05Z"></path><path class="cls-9" d="M57.26,68.02c-.05-1.34-1.32-1.82-2.07-2.46-.12-.1-.24-.19-.36-.29-.48-.4-.93-.83-1.23-1.4-.08-.13-.14-.27-.22-.48-.25-.05-.75-.08-1-.11-.37-.04-.74-.08-1.11-.13-1.05-.22-2.11-.43-3.19-.46-1.63-.04-3.3-.06-4.87.39-.06.09-.11.2-.13.32.15.25.34.49.52.72.54.69,1.16,1.33,1.69,2.03.62.58,1.26,1.12,1.77,1.79.1.14.23.4.34.66.11.26.2.52.22.65-.03,0-1.07-.24-1.46-.37-.53-.17-1.1-.39-1.65-.5-.66-.22-2.78-.75-3.2-.88-.5-.16-1.02-.24-1.54-.25-.96-.03-1.94,0-2.9.03-1.08.03-2.16.19-3.22.37-.83.14-1.63.45-2.47.55h0c0-.18,0-.37.02-.56.09-.4.34-.99.62-1.52.14-.19.28-.38.4-.59.05-.05.1-.1.15-.15.07-.16.19-.3.32-.42.23-.41.56-.74.84-1.12.34-.47.55-.99.63-1.55-1.03.04-1.77,1.02-3.95-.37-.06-.04-.26-.13-.32-.09-1.27.91-1.6.98-3.33,1.24-.57.08-2.42-.27-3.27-.57-.74-.26-1.82.73-2.56,1,.7,2.7,2.68,4.92,4.17,6.48,3.31,3.47,7.46,6,12.03,7.45,2.02.64,4.08,1.09,6.17,1.39.16.02.32.05.48.07,1.28.46,3.18-.34,3.18-1.76-.16-1.27-1.43-1.58-2.07-2.47-.13-.13-.25-.26-.36-.39-.35-.4-.64-.83-.77-1.32-.02-.16-.02-.32,0-.48.05-.47.3-.9.83-1.2.79-.48,1.74-.48,2.68-.72.15-.04.3-.07.45-.1.81-.22,1.61-.3,2.41-.37.16-.01.32-.03.48-.04,1.58-.36,3.33-.52,4.85-.38.13,0,.27-.01.4-.02.66-.06,1.27-.26,1.58-1.31.02-.11.03-.21.04-.32Z"></path><path class="cls-9" d="M72.76,61.3s-.02,0-.02-.01c-.21,0-.43.04-.66.17-.51.29-1,.61-1.47.96-1.36.63-3.01,1.19-4.15,1.19-1.76,0-3.33-.84-4.91-.85-2.2,0-5.21,1.09-7.37.64.37.3,1.32,1.05,1.68,1.37.39.35.86.69,1.25,1.09.08.08.15.16.22.25.11.07.23.15.34.24.11.09.23.18.34.29,1.09.79,1.4,2.06.7,2.94-.09.11-.19.21-.31.31-1.33.9-2.87,1.06-4.33,1.34-.13.02-.27.03-.4.05-.54.06-1.08.11-1.61.2-.15.02-.3.05-.44.07-.73.12-1.47.2-2.25.22-.17.02-.35.05-.52.09-.85.2-1.58.63-1.3,1.62.31,1.43,2.15,1.58,3.38,1.66.11.03.22.07.33.1.44.14.87.29,1.26.52.13.08.25.17.36.26.56.47.91,1.11.69,1.91-.03.13-.06.23-.08.31-.01.06-.04.12.09.17,3.77-1.21,7.7-3.1,10.9-5.5,2.22-1.67,4.28-3.65,5.88-5.96.79-1.15,1.47-2.38,1.99-3.69.2-.5.42-1.05.45-1.6,0-.16,0-.28-.04-.37Z"></path></g><g><path class="cls-5" d="M89.67,46.53h-1.31l-.19-.89-.35-1.1-1.69-.04-1.53.04-.37,1.04-.2.95h-1.28l2.84-7.96h1.5l2.57,7.96ZM87.5,43.49l-1.14-3.67h-.09l-1.3,3.67,1.25.02,1.28-.02Z"></path><path class="cls-5" d="M96.06,38.88l-.21,1.17-.2.07c-.26-.19-.54-.34-.82-.45-.28-.11-.55-.16-.81-.16-.41,0-.73.11-.97.33-.24.22-.36.48-.36.78s.12.53.36.71.62.4,1.13.64c.45.22.81.41,1.09.58.28.17.51.4.71.69.2.29.3.63.3,1.02,0,.43-.12.82-.35,1.18-.24.36-.57.64-.99.86-.43.21-.91.32-1.46.32-.36,0-.74-.05-1.13-.14-.39-.09-.76-.22-1.1-.4l.16-1.27.16-.07c.31.29.64.51,1.01.65.37.14.71.22,1.02.22.43,0,.77-.11,1.03-.34.26-.23.38-.5.38-.81s-.12-.57-.37-.76c-.25-.19-.63-.41-1.14-.65-.44-.21-.79-.39-1.07-.56s-.51-.4-.7-.68c-.19-.28-.29-.62-.29-1.02,0-.43.12-.82.35-1.18.23-.36.55-.63.97-.84s.88-.3,1.41-.3c.63,0,1.26.13,1.89.4Z"></path><path class="cls-5" d="M105.05,44.03l.04,2.51h-1.28l.06-2.39v-1.08s-2.05-.01-2.05-.01h-1.86s-.01.98-.01.98l.05,2.51h-1.27l.05-2.39-.05-5.57h1.28l-.04,3.42,1.95.03,1.92-.03-.04-3.42h1.3l-.06,5.46Z"></path><path class="cls-5" d="M113.49,39.49c.6.68.89,1.65.89,2.9,0,1.36-.32,2.4-.95,3.14-.64.74-1.54,1.11-2.72,1.11-1.09,0-1.93-.35-2.52-1.05-.59-.7-.89-1.69-.89-2.97s.32-2.36.95-3.08c.63-.72,1.53-1.08,2.7-1.08,1.1,0,1.95.34,2.54,1.02ZM109.16,40.24c-.37.48-.55,1.23-.55,2.24,0,1.1.18,1.9.54,2.41.36.51.92.76,1.67.76s1.32-.24,1.69-.73c.36-.49.55-1.25.55-2.28s-.18-1.88-.54-2.38-.92-.75-1.67-.75-1.31.24-1.68.73Z"></path><path class="cls-5" d="M117.95,44.03l.05,2.51h-1.28l.06-2.39-.06-5.57h1.29l-.06,5.46ZM119.38,42.32c.96,1.29,2.05,2.6,3.29,3.94v.15c-.38.1-.79.18-1.24.24l-.16-.07c-1.26-1.54-2.32-2.94-3.2-4.19v-.09l2.48-3,.5-.72h1.4l-3.06,3.75Z"></path><path class="cls-5" d="M130.54,46.53h-1.31l-.19-.89-.35-1.1-1.69-.04-1.53.04-.37,1.04-.2.95h-1.28l2.84-7.96h1.5l2.57,7.96ZM128.37,43.49l-1.14-3.67h-.09l-1.3,3.67,1.25.02,1.28-.02Z"></path><path class="cls-5" d="M140.17,38.68l-.07.97-1.44-.07h-.67l-.06,4.45.06,2.51h-1.29l.07-2.39-.06-4.56h-.67l-1.46.07-.09-.11.1-.97h5.51l.07.11Z"></path><path class="cls-5" d="M147.96,46.24v.15c-.41.13-.82.22-1.24.26l-.15-.1c-.69-1.12-1.24-2.08-1.66-2.85h-1.35v.33l.06,2.51h-1.3l.09-2.39-.09-5.57h2.7c.8-.01,1.42.19,1.86.59.44.4.66.97.66,1.72,0,.53-.14,1.01-.42,1.43-.28.43-.66.77-1.16,1.04.56.9,1.23,1.86,2,2.89ZM143.58,42.65l1.36.04c.84-.26,1.25-.83,1.25-1.71,0-.46-.13-.81-.38-1.04-.25-.23-.63-.36-1.15-.37l-1.05.04-.04,3.05Z"></path><path class="cls-5" d="M155.91,42.61v.94c0,.98-.26,1.73-.81,2.27-.55.54-1.32.81-2.32.81s-1.71-.26-2.22-.78c-.51-.52-.76-1.25-.74-2.2l.02-1.1-.02-3.98h1.27l-.05,4.91c0,.69.14,1.21.45,1.55.31.34.77.51,1.39.51,1.24,0,1.86-.65,1.85-1.94l-.06-5.04h1.29l-.04,4.04Z"></path><path class="cls-5" d="M162.94,38.88l-.21,1.17-.2.07c-.26-.19-.54-.34-.82-.45-.28-.11-.55-.16-.81-.16-.41,0-.73.11-.97.33-.24.22-.36.48-.36.78s.12.53.36.71.62.4,1.13.64c.45.22.81.41,1.09.58.28.17.51.4.71.69.2.29.3.63.3,1.02,0,.43-.12.82-.35,1.18-.24.36-.57.64-.99.86-.43.21-.91.32-1.46.32-.36,0-.74-.05-1.13-.14-.39-.09-.76-.22-1.1-.4l.16-1.27.16-.07c.31.29.64.51,1.01.65.37.14.71.22,1.02.22.43,0,.77-.11,1.03-.34.26-.23.38-.5.38-.81s-.12-.57-.37-.76c-.25-.19-.63-.41-1.14-.65-.44-.21-.79-.39-1.07-.56s-.51-.4-.7-.68c-.19-.28-.29-.62-.29-1.02,0-.43.12-.82.35-1.18.23-.36.55-.63.97-.84s.88-.3,1.41-.3c.63,0,1.26.13,1.89.4Z"></path><path class="cls-5" d="M170.25,38.68l-.07.97-1.44-.07h-.67l-.06,4.45.06,2.51h-1.29l.07-2.39-.06-4.56h-.67l-1.46.07-.09-.11.1-.97h5.51l.07.11Z"></path><path class="cls-5" d="M176.32,39.62l-.04,2.51,1.25.02,1.32-.04.09.11-.1.97-1.41-.04h-1.15s-.01.87-.01.87l.06,2.51h-1.3l.09-2.39-.09-5.57h4.45l.09.11-.1,1-1.86-.07h-1.28Z"></path><path class="cls-5" d="M186.92,39.49c.6.68.89,1.65.89,2.9,0,1.36-.32,2.4-.95,3.14-.64.74-1.54,1.11-2.72,1.11-1.09,0-1.93-.35-2.52-1.05-.59-.7-.89-1.69-.89-2.97s.32-2.36.95-3.08c.63-.72,1.53-1.08,2.7-1.08,1.1,0,1.95.34,2.54,1.02ZM182.6,40.24c-.37.48-.55,1.23-.55,2.24,0,1.1.18,1.9.54,2.41.36.51.92.76,1.67.76s1.32-.24,1.69-.73c.36-.49.55-1.25.55-2.28s-.18-1.88-.54-2.38-.92-.75-1.67-.75-1.31.24-1.68.73Z"></path><path class="cls-5" d="M195.79,46.24v.15c-.41.13-.82.22-1.24.26l-.15-.1c-.69-1.12-1.24-2.08-1.66-2.85h-1.35v.33l.06,2.51h-1.3l.09-2.39-.09-5.57h2.7c.8-.01,1.42.19,1.86.59.44.4.66.97.66,1.72,0,.53-.14,1.01-.42,1.43-.28.43-.66.77-1.16,1.04.56.9,1.23,1.86,2,2.89ZM191.41,42.65l1.36.04c.84-.26,1.25-.83,1.25-1.71,0-.46-.13-.81-.38-1.04-.25-.23-.63-.36-1.15-.37l-1.05.04-.04,3.05Z"></path><path class="cls-5" d="M206.33,46.24v.15c-.41.13-.82.22-1.24.26l-.15-.1c-.69-1.12-1.24-2.08-1.66-2.85h-1.35v.33l.06,2.51h-1.3l.09-2.39-.09-5.57h2.7c.8-.01,1.42.19,1.86.59.44.4.66.97.66,1.72,0,.53-.14,1.01-.42,1.43-.28.43-.66.77-1.16,1.04.56.9,1.23,1.86,2,2.89ZM201.96,42.65l1.36.04c.84-.26,1.25-.83,1.25-1.71,0-.46-.13-.81-.38-1.04-.25-.23-.63-.36-1.15-.37l-1.05.04-.04,3.05Z"></path><path class="cls-5" d="M213.34,45.44l.07.11-.09.98h-4.7l.09-2.39-.09-5.57h4.73l.07.11-.1.98-1.89-.05h-1.51s-.04,2.33-.04,2.33l1.44.02,1.31-.04.09.1-.1.98-1.4-.04-1.35.02v1.03s.02,1.46.02,1.46h1.51s1.92-.05,1.92-.05Z"></path><path class="cls-5" d="M219.83,38.88l-.21,1.17-.2.07c-.26-.19-.54-.34-.82-.45-.28-.11-.55-.16-.81-.16-.41,0-.73.11-.97.33-.24.22-.36.48-.36.78s.12.53.36.71.62.4,1.13.64c.45.22.81.41,1.09.58.28.17.51.4.71.69.2.29.3.63.3,1.02,0,.43-.12.82-.35,1.18-.24.36-.57.64-.99.86-.43.21-.91.32-1.46.32-.36,0-.74-.05-1.13-.14-.39-.09-.76-.22-1.1-.4l.16-1.27.16-.07c.31.29.64.51,1.01.65.37.14.71.22,1.02.22.43,0,.77-.11,1.03-.34.26-.23.38-.5.38-.81s-.12-.57-.37-.76c-.25-.19-.63-.41-1.14-.65-.44-.21-.79-.39-1.07-.56s-.51-.4-.7-.68c-.19-.28-.29-.62-.29-1.02,0-.43.12-.82.35-1.18.23-.36.55-.63.97-.84s.88-.3,1.41-.3c.63,0,1.26.13,1.89.4Z"></path><path class="cls-5" d="M227.19,45.44l.07.11-.09.98h-4.7l.09-2.39-.09-5.57h4.73l.07.11-.1.98-1.89-.05h-1.51s-.04,2.33-.04,2.33l1.44.02,1.31-.04.09.1-.1.98-1.4-.04-1.35.02v1.03s.02,1.46.02,1.46h1.51s1.92-.05,1.92-.05Z"></path><path class="cls-5" d="M235.43,46.53h-1.31l-.19-.89-.35-1.1-1.69-.04-1.53.04-.37,1.04-.2.95h-1.28l2.84-7.96h1.5l2.57,7.96ZM233.26,43.49l-1.14-3.67h-.09l-1.3,3.67,1.25.02,1.28-.02Z"></path><path class="cls-5" d="M243.25,46.24v.15c-.41.13-.82.22-1.24.26l-.15-.1c-.69-1.12-1.24-2.08-1.66-2.85h-1.35v.33l.06,2.51h-1.3l.09-2.39-.09-5.57h2.7c.8-.01,1.42.19,1.86.59.44.4.66.97.66,1.72,0,.53-.14,1.01-.42,1.43-.28.43-.66.77-1.16,1.04.56.9,1.23,1.86,2,2.89ZM238.87,42.65l1.36.04c.84-.26,1.25-.83,1.25-1.71,0-.46-.13-.81-.38-1.04-.25-.23-.63-.36-1.15-.37l-1.05.04-.04,3.05Z"></path><path class="cls-5" d="M250.56,39.03l-.24,1.13-.12.04c-.55-.43-1.17-.65-1.84-.65-.73,0-1.28.25-1.67.74-.38.49-.58,1.23-.58,2.2s.19,1.76.58,2.28c.39.52.94.78,1.66.78.35,0,.69-.06,1.04-.18.34-.12.66-.29.95-.5l.12.07-.1,1.17c-.71.35-1.41.52-2.11.52-1.12,0-1.98-.35-2.58-1.04s-.91-1.68-.91-2.96.32-2.34.95-3.06,1.53-1.08,2.69-1.08c.81,0,1.53.18,2.15.55Z"></path><path class="cls-5" d="M259.08,44.03l.04,2.51h-1.28l.06-2.39v-1.08s-2.05-.01-2.05-.01h-1.86s-.01.98-.01.98l.05,2.51h-1.27l.05-2.39-.05-5.57h1.28l-.04,3.42,1.95.03,1.92-.03-.04-3.42h1.3l-.06,5.46Z"></path><path class="cls-5" d="M265.99,44.03l.06,2.51h-1.3l.09-2.39-.09-5.57h1.31l-.07,5.46Z"></path><path class="cls-5" d="M275.4,44.15l.04,2.38h-1.38l-3.75-5.97h-.09v3.3s.03,2.67.03,2.67h-1.17l.06-2.36-.05-5.61h1.35l3.76,5.97h.1l-.02-5.9,1.19-.09-.07,5.61Z"></path><path class="cls-5" d="M88.41,60.33l.07.11-.09.98h-4.7l.09-2.39-.09-5.57h4.73l.07.11-.1.98-1.89-.05h-1.51s-.04,2.33-.04,2.33l1.44.02,1.31-.04.09.1-.1.98-1.4-.04-1.35.02v1.03s.02,1.46.02,1.46h1.51s1.92-.05,1.92-.05Z"></path><path class="cls-5" d="M95.63,53.91l-.24,1.13-.12.04c-.55-.43-1.17-.65-1.84-.65-.73,0-1.28.25-1.67.74-.38.49-.58,1.23-.58,2.2s.19,1.76.58,2.28c.39.52.94.78,1.66.78.35,0,.69-.06,1.04-.18.34-.12.66-.29.95-.5l.12.07-.1,1.17c-.71.35-1.41.52-2.11.52-1.12,0-1.98-.35-2.58-1.04-.6-.69-.91-1.68-.91-2.96s.32-2.34.95-3.06,1.53-1.08,2.69-1.08c.81,0,1.53.18,2.15.55Z"></path><path class="cls-5" d="M103.34,54.37c.6.68.89,1.65.89,2.9,0,1.36-.32,2.4-.95,3.14-.64.74-1.54,1.11-2.72,1.11-1.09,0-1.93-.35-2.52-1.05-.59-.7-.89-1.69-.89-2.97s.32-2.36.95-3.08c.63-.72,1.53-1.08,2.7-1.08,1.1,0,1.95.34,2.54,1.02ZM99.02,55.12c-.37.48-.55,1.23-.55,2.24,0,1.1.18,1.9.54,2.41.36.51.92.76,1.67.76s1.32-.24,1.69-.73c.36-.49.55-1.25.55-2.28s-.18-1.88-.54-2.38-.92-.75-1.67-.75-1.31.24-1.68.73Z"></path><path class="cls-5" d="M110.72,60.46l-.1.95h-4.09l.09-2.39-.09-5.57h1.31l-.07,5.46.02,1.44h2.84l.09.11Z"></path><path class="cls-5" d="M117.82,54.37c.6.68.89,1.65.89,2.9,0,1.36-.32,2.4-.95,3.14-.64.74-1.54,1.11-2.72,1.11-1.09,0-1.93-.35-2.52-1.05-.59-.7-.89-1.69-.89-2.97s.32-2.36.95-3.08c.63-.72,1.53-1.08,2.7-1.08,1.1,0,1.95.34,2.54,1.02ZM113.49,55.12c-.37.48-.55,1.23-.55,2.24,0,1.1.18,1.9.54,2.41.36.51.92.76,1.67.76s1.32-.24,1.69-.73c.36-.49.55-1.25.55-2.28s-.18-1.88-.54-2.38-.92-.75-1.67-.75-1.31.24-1.68.73Z"></path><path class="cls-5" d="M126.75,53.9l-.26,1.19h-.14c-.41-.23-.77-.4-1.1-.5-.33-.1-.68-.16-1.04-.16-.83,0-1.44.25-1.85.75s-.61,1.29-.61,2.36.19,1.77.57,2.23c.38.46.98.69,1.81.69.21,0,.41-.02.61-.06.2-.04.46-.1.76-.19l.04-.81-.04-1.23,1.2-.09-.03,1.12.04,1.82c-1.03.32-1.91.48-2.67.48-1.22,0-2.13-.34-2.73-1.01-.6-.67-.91-1.64-.91-2.9,0-1.37.35-2.42,1.04-3.15.69-.73,1.68-1.09,2.96-1.09.83,0,1.61.18,2.33.53Z"></path><path class="cls-5" d="M132.13,59.14l.05,2.28h-1.28l.06-2.28v-.48s-2.53-5.2-2.53-5.2h1.36l.16.5,1.58,3.34h.1l1.75-3.31.2-.52h1.33l-2.77,5.14v.55Z"></path><path class="cls-5" d="M145.53,61.42h-1.31l-.19-.89-.35-1.1-1.69-.04-1.53.04-.37,1.04-.2.95h-1.28l2.84-7.96h1.5l2.57,7.96ZM143.36,58.38l-1.14-3.67h-.09l-1.3,3.67,1.25.02,1.28-.02Z"></path><path class="cls-5" d="M154.02,59.04l.04,2.38h-1.38l-3.75-5.97h-.09v3.3s.03,2.67.03,2.67h-1.17l.06-2.36-.05-5.61h1.35l3.76,5.97h.1l-.02-5.9,1.19-.09-.07,5.61Z"></path><path class="cls-5" d="M162.76,54.37c.61.64.92,1.57.92,2.78,0,1.4-.33,2.47-1,3.22s-1.63,1.12-2.89,1.12c-.36,0-.78,0-1.28-.02-.5-.01-.96-.03-1.39-.06h-.01l.09-2.39-.09-5.57h.01l3.01-.05c1.14,0,2.02.32,2.63.97ZM161.75,59.72c.4-.5.6-1.27.6-2.28s-.19-1.78-.58-2.26-.97-.73-1.74-.73c-.46,0-1,.02-1.63.05l-.06,4.42.04,1.48c.3.02.6.05.89.06s.54.02.73.02c.76,0,1.34-.25,1.74-.76Z"></path><path class="cls-5" d="M173.49,53.57l-.07.97-1.44-.07h-.67l-.06,4.45.06,2.51h-1.29l.07-2.39-.06-4.56h-.67l-1.46.07-.09-.11.1-.97h5.51l.07.11Z"></path><path class="cls-5" d="M181.98,58.91l.04,2.51h-1.28l.06-2.39v-1.08s-2.05-.01-2.05-.01h-1.86s-.01.98-.01.98l.05,2.51h-1.27l.05-2.39-.05-5.57h1.28l-.04,3.42,1.95.03,1.92-.03-.04-3.42h1.3l-.06,5.46Z"></path><path class="cls-5" d="M189.76,60.33l.07.11-.09.98h-4.7l.09-2.39-.09-5.57h4.73l.07.11-.1.98-1.89-.05h-1.51s-.04,2.33-.04,2.33l1.44.02,1.31-.04.09.1-.1.98-1.4-.04-1.35.02v1.03s.02,1.46.02,1.46h1.51s1.92-.05,1.92-.05Z"></path><path class="cls-5" d="M199.35,60.33l.07.11-.09.98h-4.7l.09-2.39-.09-5.57h4.73l.07.11-.1.98-1.89-.05h-1.51s-.04,2.33-.04,2.33l1.44.02,1.31-.04.09.1-.1.98-1.4-.04-1.35.02v1.03s.02,1.46.02,1.46h1.51s1.92-.05,1.92-.05Z"></path><path class="cls-5" d="M207.95,59.04l.04,2.38h-1.38l-3.75-5.97h-.09v3.3s.03,2.67.03,2.67h-1.17l.06-2.36-.05-5.61h1.35l3.76,5.97h.1l-.02-5.9,1.19-.09-.07,5.61Z"></path><path class="cls-5" d="M214.02,61.42h-1.51l-2.58-7.96h1.31l.19.91,1.82,5.82h.09l2.02-5.76.2-.97h1.28l-2.82,7.96Z"></path><path class="cls-5" d="M220.05,58.91l.06,2.51h-1.3l.09-2.39-.09-5.57h1.31l-.07,5.46Z"></path><path class="cls-5" d="M228.79,61.12v.15c-.41.13-.82.22-1.24.26l-.15-.1c-.69-1.12-1.24-2.08-1.66-2.85h-1.35v.33l.06,2.51h-1.3l.09-2.39-.09-5.57h2.7c.8-.01,1.42.19,1.86.59.44.4.66.97.66,1.72,0,.53-.14,1.01-.42,1.43-.28.43-.66.77-1.16,1.04.56.9,1.23,1.86,2,2.89ZM224.41,57.54l1.36.04c.84-.26,1.25-.83,1.25-1.71,0-.46-.13-.81-.38-1.04-.25-.23-.63-.36-1.15-.37l-1.05.04-.04,3.05Z"></path><path class="cls-5" d="M236.5,54.37c.6.68.89,1.65.89,2.9,0,1.36-.32,2.4-.95,3.14-.64.74-1.54,1.11-2.72,1.11-1.09,0-1.93-.35-2.52-1.05-.59-.7-.89-1.69-.89-2.97s.32-2.36.95-3.08c.63-.72,1.53-1.08,2.7-1.08,1.1,0,1.95.34,2.54,1.02ZM232.18,55.12c-.37.48-.55,1.23-.55,2.24,0,1.1.18,1.9.54,2.41.36.51.92.76,1.67.76s1.32-.24,1.69-.73c.36-.49.55-1.25.55-2.28s-.18-1.88-.54-2.38-.92-.75-1.67-.75-1.31.24-1.68.73Z"></path><path class="cls-5" d="M246.05,59.04l.04,2.38h-1.38l-3.75-5.97h-.09v3.3s.03,2.67.03,2.67h-1.17l.06-2.36-.05-5.61h1.35l3.76,5.97h.1l-.02-5.9,1.19-.09-.07,5.61Z"></path><path class="cls-5" d="M257.2,61.42h-1.14l-.16-2.42-.37-3.6h-.09l-2.05,5.14h-1.02l-1.9-5.14h-.11l-.37,3.49-.2,2.53h-1.08l.83-7.96h1.46l.37,1.19,1.53,4.23h.1l1.61-4.27.37-1.15h1.45l.76,7.96Z"></path><path class="cls-5" d="M264.54,60.33l.07.11-.09.98h-4.7l.09-2.39-.09-5.57h4.73l.07.11-.1.98-1.89-.05h-1.51s-.04,2.33-.04,2.33l1.44.02,1.31-.04.09.1-.1.98-1.4-.04-1.35.02v1.03s.02,1.46.02,1.46h1.51s1.92-.05,1.92-.05Z"></path><path class="cls-5" d="M273.13,59.04l.04,2.38h-1.38l-3.75-5.97h-.09v3.3s.03,2.67.03,2.67h-1.17l.06-2.36-.05-5.61h1.35l3.76,5.97h.1l-.02-5.9,1.19-.09-.07,5.61Z"></path><path class="cls-5" d="M280.92,53.57l-.07.97-1.44-.07h-.67l-.06,4.45.06,2.51h-1.29l.07-2.39-.06-4.56h-.67l-1.46.07-.09-.11.1-.97h5.51l.07.11Z"></path></g></svg>